<svg width="206" height="77" viewBox="0 0 206 77" fill="none" xmlns="http://www.w3.org/2000/svg">
<path d="M77.1005 35.1444C75.2419 13.9638 56.5082 -1.70479 35.2587 0.148906C14.0095 2.00146 -1.71034 20.6742 0.149388 41.8559C2.00768 63.0366 20.7414 78.704 41.9909 76.8506C63.2404 74.9969 78.9599 56.3242 77.1005 35.1444Z" fill="#E1B167"/>
<path d="M62.891 58.7909C51.6466 72.1466 31.6677 73.89 18.2677 62.6811C4.86679 51.4739 3.11865 31.5598 14.3631 18.2021C23.2701 7.62231 37.656 4.33698 49.9125 8.99689C47.8882 11.3277 44.3957 15.3263 43.8918 15.7329C43.2146 16.2782 42.1451 16.2674 41.6573 17.0482C41.5448 18.11 42.1792 19.184 42.7336 20.0098C42.9485 20.3273 43.2226 20.7202 43.3388 21.0767C39.0485 26.25 34.5085 30.8531 30.2251 34.6464C29.5207 35.2706 28.6595 35.8601 28.3388 36.4402C28.0713 36.923 28.1119 37.9243 28.0355 38.8089C27.9794 39.4605 28.6595 45.4922 22.4675 55.6924C22.2881 55.9465 21.9073 56.5662 21.4492 56.9001C21.5073 56.9486 22.0767 57.4249 22.2675 57.5843L34.2476 43.3547C33.3025 42.4188 33.2184 40.903 34.0902 39.8681C35.0106 38.7747 36.6449 38.6321 37.7404 39.5495C38.8374 40.4652 38.9801 42.0942 38.0603 43.1873C37.1879 44.2228 35.675 44.4042 34.5869 43.6391L22.6068 57.8686C22.7988 58.03 23.3682 58.5046 23.426 58.5536C23.6758 58.0474 24.2228 57.5646 24.4443 57.3453C33.4453 49.4947 39.5226 49.1163 40.1575 48.9463C41.0178 48.7193 42.0146 48.5842 42.4452 48.2391C42.9625 47.823 43.3946 46.8765 43.8895 46.076C46.8937 41.2127 50.6538 35.9559 55.0193 30.8468C55.3924 30.8993 55.8281 31.1004 56.178 31.2555C57.0904 31.6565 58.2623 32.0925 59.2918 31.7988C59.9784 31.1839 59.7822 30.1353 60.2033 29.3762C60.518 28.8115 63.8621 24.688 65.8128 22.2959C72.5444 33.5187 71.798 48.2091 62.891 58.7909ZM72.7115 35.5261C71.0647 16.7625 54.4676 2.8814 35.6421 4.52292C16.8171 6.16501 2.8909 22.7077 4.53805 41.4725C6.18519 60.2371 22.7817 74.117 41.6072 72.476C60.4322 70.8334 74.3587 54.2913 72.7115 35.5261Z" fill="#49413E"/>
<path d="M92.2821 38.2697L93.5198 38.1112L93.3255 34.073L93.1129 34.0205L90.1411 34.1611H83.5434L81.2436 34.0205L81.0313 34.073L80.837 38.1112L82.0931 38.2697L82.7651 35.5893L86.1261 35.6603V43.4535L84.3745 43.8405L84.4987 44.9165H89.8581L89.982 43.8405L88.2482 43.4535V35.6603L91.5917 35.5893L92.2821 38.2697ZM107.087 43.4707V35.6078L108.82 35.2371L108.733 34.1614H103.284L103.194 35.2371L104.928 35.6078V38.6927H98.4898V35.6078L100.224 35.2371L100.136 34.1614H94.6874L94.5987 35.2371L96.332 35.6078V43.4707L94.5987 43.8405L94.6874 44.9165H100.136L100.224 43.8405L98.4898 43.4707V40.1908H104.928V43.4707L103.194 43.8405L103.284 44.9165H108.733L108.82 43.8405L107.087 43.4707ZM113.862 43.4185V39.8924H117.117L117.611 41.5491L118.761 41.4601V37.212L117.666 37.123L117.117 38.4112H113.862V35.6603H119.664L119.823 37.6526L121.221 37.7231L121.45 34.1263L121.326 34.0559L118.231 34.1614H110.058L109.971 35.2371L111.703 35.6078V43.4707L109.971 43.8405L110.058 44.9165H121.467L121.821 41.0557L120.407 40.9317L119.699 43.4185H113.862Z" fill="#E1B167"/>
<path d="M168.128 28.0486V15.7774L170.831 15.199L170.694 13.521H163.019L157.223 24.913H156.974L151.066 13.521H143.366L143.227 15.199L145.793 15.7497V28.0765L143.227 28.6272L143.366 30.3049H150.792L150.929 28.6272L148.473 28.0765V22.2154L148.169 16.0526H148.555L155.898 30.2778L157.444 30.0306L164.457 16.1073H164.816V28.0486L161.916 28.6272L162.053 30.3049H170.694L170.831 28.6272L168.128 28.0486Z" fill="#E1B167"/>
<path d="M139.554 21.9136C139.554 26.2332 137.014 28.7092 132.846 28.7092C128.676 28.7092 126.137 26.2332 126.137 21.9136C126.137 17.593 128.676 15.1173 132.846 15.1173C137.014 15.117 139.554 17.593 139.554 21.9136ZM142.976 21.9136C142.976 16.5204 138.974 12.833 132.846 12.833C126.716 12.833 122.714 16.5204 122.714 21.9136C122.714 27.307 126.716 30.9932 132.846 30.9932C138.974 30.9932 142.976 27.3067 142.976 21.9136Z" fill="#E1B167"/>
<path d="M111.231 22.2152C109.38 22.2152 107.972 22.0775 106.427 21.8023V15.6939C108.001 15.419 109.436 15.2813 110.761 15.2813C113.384 15.2813 116.393 15.749 116.393 18.6656C116.393 21.3894 114.377 22.2152 111.231 22.2152ZM122.824 28.1311L121.472 27.3611C121.169 27.9666 120.616 28.2688 119.954 28.2688C119.512 28.2688 118.986 28.1043 118.656 27.6366L116.669 24.8569C116.283 24.3339 115.784 24.0316 115.012 23.8394V23.6466C117.965 23.0682 119.871 21.638 119.871 18.7203C119.871 14.1263 115.454 13.0249 110.485 13.0249C107.006 13.0249 103.831 13.3281 100.188 13.8776L100.326 15.5844L103.032 15.8317V28.0216L100.188 28.6536L100.326 30.3056H108.966L109.103 28.6536L106.426 28.0484V23.9209C108.111 24.3339 109.325 24.4448 111.147 24.4448C112.195 24.4448 112.803 24.8569 113.217 25.4353L115.344 28.8743C116.116 30.1679 117.468 30.8552 118.821 30.8552C120.671 30.8549 122.271 29.9742 122.824 28.1311Z" fill="#E1B167"/>
<path d="M98.1456 19.161L98.4767 13.4645L98.2558 13.355L93.5905 13.5207H80.9752L80.837 15.1981L83.5419 15.7768V28.0479L80.837 28.6266L80.9752 30.3055H89.6152V28.6266L86.9103 28.0479V23.013H91.9897L92.9001 25.5996L94.5844 25.5164V18.5006L92.9833 18.4179L91.9897 20.7019H86.9103V15.8583H95.6888L95.9643 19.0778L98.1456 19.161Z" fill="#E1B167"/>
<path d="M204.498 57.937L205.072 48.9557L204.763 48.7798L197.033 49.0447H176.628L176.408 51.7294L180.735 52.6546V72.2895L176.408 73.2146L176.628 75.8997H205.117L206 66.2579L202.466 65.9496L200.701 72.1569H186.124V63.3518H194.251L195.488 67.4913L198.358 67.2703V56.662L195.621 56.4404L194.251 59.655H186.124V52.7869H200.611L201.01 57.7611L204.498 57.937Z" fill="#E1B167"/>
<path d="M171.916 64.4527L174.83 63.7058L174.653 61.1077H161.712L161.492 63.7058L166.528 64.6286V71.1881C164.408 72.6412 161.845 73.434 159.019 73.434C152.348 73.434 148.064 69.5158 148.064 62.4721C148.064 55.428 152.791 51.4662 159.461 51.4662C162.111 51.4662 165.07 52.1262 167.19 53.5795L167.72 58.1125L171.254 58.2904L171.871 50.3215C167.986 48.6489 163.392 47.9434 159.019 47.9434C148.773 47.9434 142.588 54.283 142.588 62.4718C142.588 70.6603 148.33 76.9999 158.446 76.9999C161.581 76.9999 164.76 76.2507 167.323 74.6674L170.899 76.4267L171.917 75.9444V64.4527H171.916Z" fill="#E1B167"/>
<path d="M129.699 64.7613H118.701L124.223 53.7121H124.663L129.699 64.7613ZM143.435 73.2147L139.415 72.3785L127.535 48.252H127.269L122.058 49.7486L119.629 55.0764L110.176 72.2896L105.759 73.2144L105.981 75.8994H118.877L119.099 73.2144L114.946 72.3326L116.933 68.3708H131.376L133.276 72.3326L129.169 73.2144L129.389 75.8994H143.215L143.435 73.2147Z" fill="#E1B167"/>
<path d="M106.764 57.2766C106.764 61.6359 103.539 63.3975 98.5039 63.3975C95.5446 63.3975 93.2926 63.1759 90.8195 62.737V52.5226C93.3364 52.0837 95.6327 51.8624 97.7531 51.8624C101.949 51.8621 106.764 52.6116 106.764 57.2766ZM112.153 57.4979C112.153 49.7053 104.82 48.252 97.3119 48.252C91.7465 48.252 86.6671 48.7362 80.837 49.618L81.0582 52.3458L85.3856 52.7436V72.2459L80.837 73.2583L81.0582 75.8997H94.882L95.1028 73.2583L90.8189 72.2898V66.3033C93.9982 66.9181 96.4275 67.1833 99.8732 67.1833C107.16 67.1833 112.153 63.5735 112.153 57.4979Z" fill="#E1B167"/>
</svg>
