<svg width="130" height="49" viewBox="0 0 130 49" fill="none" xmlns="http://www.w3.org/2000/svg">
<path d="M48.6557 22.3648C47.4828 8.88611 35.6605 -1.08487 22.2506 0.0947588C8.84094 1.27367 -1.07934 13.1564 0.0942737 26.6358C1.26698 40.1145 13.0892 50.0847 26.4991 48.9053C39.909 47.7256 49.8291 35.8429 48.6557 22.3648Z" fill="#49413E"/>
<path d="M39.6885 37.4129C32.5925 45.9121 19.9845 47.0215 11.5281 39.8885C3.07127 32.7566 1.96808 20.0839 9.0641 11.5835C14.685 4.85086 23.7635 2.76019 31.4981 5.7256C30.2207 7.20886 28.0167 9.75342 27.6987 10.0122C27.2713 10.3592 26.5964 10.3523 26.2886 10.8492C26.2176 11.5249 26.6179 12.2083 26.9678 12.7339C27.1034 12.9359 27.2764 13.186 27.3497 13.4128C24.6423 16.7049 21.7772 19.6342 19.0741 22.0481C18.6296 22.4454 18.0861 22.8205 17.8837 23.1896C17.7149 23.4969 17.7405 24.1341 17.6923 24.697C17.6569 25.1117 18.0861 28.95 14.1785 35.4411C14.0653 35.6028 13.825 35.9972 13.5359 36.2097C13.5726 36.2405 13.9319 36.5436 14.0523 36.6451L21.6125 27.5898C21.0162 26.9942 20.9631 26.0296 21.5132 25.371C22.0941 24.6752 23.1254 24.5845 23.8168 25.1683C24.509 25.7511 24.5991 26.7877 24.0186 27.4833C23.4681 28.1423 22.5133 28.2577 21.8267 27.7708L14.2665 36.826C14.3876 36.9287 14.7469 37.2307 14.7834 37.2619C14.941 36.9398 15.2862 36.6325 15.426 36.493C21.1063 31.4971 24.9415 31.2563 25.3421 31.1482C25.885 31.0037 26.5141 30.9177 26.7858 30.6981C27.1123 30.4333 27.3849 29.831 27.6973 29.3215C29.5931 26.2267 31.966 22.8815 34.7209 19.6302C34.9563 19.6636 35.2313 19.7916 35.4521 19.8903C36.0279 20.1454 36.7675 20.4229 37.4171 20.236C37.8505 19.8447 37.7266 19.1774 37.9924 18.6943C38.191 18.335 40.3013 15.7109 41.5324 14.1887C45.7805 21.3305 45.3094 30.679 39.6885 37.4129ZM45.8859 22.608C44.8466 10.6674 34.3728 1.8339 22.4926 2.87851C10.6127 3.92349 1.82435 14.4507 2.86381 26.3921C3.90327 38.3332 14.3768 47.1659 26.257 46.1217C38.1368 45.0764 46.9254 34.5495 45.8859 22.608Z" fill="#E1B167"/>
<path d="M58.2363 24.3535L59.0174 24.2526L58.8948 21.6828L58.7606 21.6494L56.8852 21.7388H52.7216L51.2703 21.6494L51.1363 21.6828L51.0137 24.2526L51.8063 24.3535L52.2305 22.6477L54.3515 22.6929V27.6523L53.2461 27.8985L53.3245 28.5833H56.7066L56.7848 27.8985L55.6906 27.6523V22.6929L57.8006 22.6477L58.2363 24.3535ZM67.5795 27.6631V22.6595L68.6728 22.4236L68.6177 21.739H65.1792L65.1227 22.4236L66.217 22.6595V24.6226H62.1538V22.6595L63.2482 22.4236L63.1924 21.739H59.7542L59.6983 22.4236L60.7921 22.6595V27.6631L59.6983 27.8985L59.7542 28.5833H63.1924L63.2482 27.8985L62.1538 27.6631V25.5759H66.217V27.6631L65.1227 27.8985L65.1792 28.5833H68.6177L68.6728 27.8985L67.5795 27.6631ZM71.8547 27.6299V25.3861H73.9085L74.2207 26.4403L74.9462 26.3837V23.6803L74.2552 23.6237L73.9085 24.4435H71.8547V22.6929H75.5158L75.6164 23.9607L76.4986 24.0056L76.6434 21.7167L76.5649 21.6719L74.6116 21.739H69.4544L69.3992 22.4236L70.4922 22.6595V27.6631L69.3992 27.8985L69.4544 28.5833H76.6542L76.8772 26.1264L75.9853 26.0474L75.5381 27.6299H71.8547Z" fill="#49413E"/>
<path d="M106.1 17.8493V10.0403L107.806 9.6723L107.72 8.60446H102.876L99.2186 15.8539H99.0612L95.3331 8.60446H90.4736L90.386 9.6723L92.0056 10.0227V17.8671L90.386 18.2176L90.4736 19.2852H95.1603L95.2466 18.2176L93.6965 17.8671V14.1373L93.5048 10.2155H93.7485L98.3825 19.268L99.3577 19.1106L103.783 10.2503H104.01V17.8493L102.18 18.2176L102.267 19.2852H107.72L107.806 18.2176L106.1 17.8493Z" fill="#49413E"/>
<path d="M88.0679 13.9451C88.0679 16.694 86.4651 18.2696 83.8351 18.2696C81.2035 18.2696 79.6009 16.694 79.6009 13.9451C79.6009 11.1957 81.2035 9.62021 83.8351 9.62021C86.4651 9.62003 88.0679 11.1957 88.0679 13.9451ZM90.2277 13.9451C90.2277 10.5131 87.7021 8.16654 83.8349 8.16654C79.9664 8.16654 77.4409 10.5131 77.4409 13.9451C77.4409 17.3773 79.9664 19.7231 83.8349 19.7231C87.7021 19.7231 90.2277 17.3771 90.2277 13.9451Z" fill="#49413E"/>
<path d="M70.1941 14.1375C69.0265 14.1375 68.138 14.0498 67.1628 13.8747V9.98753C68.1562 9.81258 69.0619 9.72493 69.8978 9.72493C71.5528 9.72493 73.4517 10.0226 73.4517 11.8786C73.4517 13.6119 72.1795 14.1375 70.1941 14.1375ZM77.5104 17.9021L76.6573 17.4121C76.4657 17.7974 76.1171 17.9898 75.6991 17.9898C75.4201 17.9898 75.0885 17.8851 74.8803 17.5875L73.626 15.8185C73.3824 15.4857 73.0677 15.2933 72.5804 15.171V15.0483C74.4437 14.6803 75.6466 13.7702 75.6466 11.9134C75.6466 8.98992 72.8591 8.28904 69.7234 8.28904C67.5282 8.28904 65.5244 8.48196 63.2252 8.83167L63.3124 9.91784L65.0199 10.0752V17.8325L63.2252 18.2346L63.3124 19.2859H68.7652L68.8517 18.2346L67.1622 17.8495V15.2229C68.2252 15.4857 68.9918 15.5563 70.141 15.5563C70.803 15.5563 71.1866 15.8185 71.4475 16.1866L72.7896 18.3751C73.2771 19.1983 74.1303 19.6357 74.9845 19.6357C76.1514 19.6355 77.1616 19.0751 77.5104 17.9021Z" fill="#49413E"/>
<path d="M61.9366 12.194L62.1455 8.56889L62.0061 8.4992L59.062 8.60464H51.1009L51.0137 9.67212L52.7207 10.0403V17.8493L51.0137 18.2176L51.1009 19.2859H56.5533V18.2176L54.8464 17.8493V14.6453H58.0518L58.6263 16.2913L59.6892 16.2383V11.7737L58.6788 11.7211L58.0518 13.1745H54.8464V10.0923H60.3862L60.56 12.141L61.9366 12.194Z" fill="#49413E"/>
<path d="M129.052 36.8687L129.415 31.1532L129.219 31.0413L124.341 31.2099H111.464L111.326 32.9183L114.056 33.5071V46.0021L111.326 46.5908L111.464 48.2995H129.443L130 42.1638L127.77 41.9676L126.656 45.9177H117.457V40.3145H122.585L123.366 42.9487L125.178 42.808V36.0572L123.45 35.9162L122.585 37.9619H117.457V33.5913H126.599L126.851 36.7567L129.052 36.8687Z" fill="#49413E"/>
<path d="M108.491 41.0151L110.329 40.5398L110.218 38.8865H102.051L101.912 40.5398L105.09 41.1271V45.3014C103.752 46.226 102.135 46.7306 100.351 46.7306C96.1422 46.7306 93.4387 44.2372 93.4387 39.7548C93.4387 35.2721 96.4215 32.751 100.631 32.751C102.303 32.751 104.17 33.1709 105.508 34.0958L105.843 36.9804L108.073 37.0937L108.462 32.0225C106.011 30.9581 103.111 30.5092 100.352 30.5092C93.8856 30.5092 89.9829 34.5435 89.9829 39.7546C89.9829 44.9655 93.6063 48.9998 99.99 48.9998C101.969 48.9998 103.975 48.5231 105.592 47.5155L107.849 48.635L108.491 48.3281V41.0151H108.491Z" fill="#49413E"/>
<path d="M81.8487 41.2113H74.9083L78.393 34.18H78.6707L81.8487 41.2113ZM90.5175 46.5908L87.9805 46.0587L80.483 30.7053H80.3154L77.0269 31.6578L75.494 35.0482L69.5286 46.0021L66.7412 46.5906L66.8815 48.2993H75.0195L75.1596 46.5906L72.5385 46.0295L73.7926 43.5084H82.9069L84.106 46.0295L81.5141 46.5906L81.6529 48.2993H90.3781L90.5175 46.5908Z" fill="#49413E"/>
<path d="M67.3751 36.4483C67.3751 39.2225 65.3401 40.3435 62.1627 40.3435C60.2952 40.3435 58.874 40.2025 57.3133 39.9232V33.423C58.9016 33.1437 60.3508 33.0029 61.6889 33.0029C64.3369 33.0027 67.3751 33.4797 67.3751 36.4483ZM70.7761 36.5892C70.7761 31.6302 66.1486 30.7053 61.4105 30.7053C57.8983 30.7053 54.6929 31.0135 51.0137 31.5746L51.1533 33.3105L53.8842 33.5637V45.9743L51.0137 46.6186L51.1533 48.2995H59.877L60.0164 46.6186L57.3129 46.0023V42.1926C59.3193 42.5839 60.8524 42.7527 63.0268 42.7527C67.6256 42.7527 70.7761 40.4555 70.7761 36.5892Z" fill="#49413E"/>
</svg>
