<svg xmlns="http://www.w3.org/2000/svg" xmlns:xlink="http://www.w3.org/1999/xlink" width="0" height="0">

  <symbol id="site-logo" viewBox="0 0 152 58">
    <g>
      <path fill="#4D4040" d="M56.89,26.56c-1.35-15.4-14.93-26.8-30.33-25.45C11.16,2.46-0.24,16.04,1.11,31.44 c1.35,15.41,14.93,26.8,30.33,25.45C46.84,55.54,58.24,41.96,56.89,26.56"/>
      <path fill="#E4B665" d="M46.59,43.76c-8.15,9.71-22.63,10.98-32.35,2.83c-9.72-8.15-10.98-22.63-2.83-32.35 c6.46-7.7,16.89-10.08,25.77-6.69c-1.47,1.69-4,4.6-4.36,4.9c-0.49,0.4-1.27,0.39-1.62,0.96c-0.08,0.77,0.38,1.55,0.78,2.15 c0.16,0.23,0.35,0.52,0.44,0.77c-3.11,3.76-6.4,7.11-9.51,9.87c-0.51,0.45-1.14,0.88-1.37,1.3c-0.19,0.35-0.16,1.08-0.22,1.72 c-0.04,0.47,0.45,4.86-4.04,12.28c-0.13,0.19-0.41,0.64-0.74,0.88c0.04,0.04,0.46,0.38,0.59,0.5l8.68-10.35 c-0.69-0.68-0.75-1.78-0.11-2.54c0.67-0.79,1.85-0.9,2.65-0.23c0.79,0.67,0.9,1.85,0.23,2.65c-0.63,0.75-1.73,0.88-2.52,0.33 l-8.68,10.35c0.14,0.12,0.55,0.46,0.59,0.5c0.18-0.37,0.58-0.72,0.74-0.88c6.52-5.71,10.93-5.98,11.39-6.11 c0.62-0.17,1.35-0.26,1.66-0.51c0.38-0.3,0.69-0.99,1.05-1.57c2.18-3.54,4.9-7.36,8.07-11.07c0.27,0.04,0.59,0.18,0.84,0.3 c0.66,0.29,1.51,0.61,2.26,0.39c0.5-0.45,0.36-1.21,0.66-1.76c0.23-0.41,2.65-3.41,4.07-5.15C53.59,25.38,53.05,36.06,46.59,43.76 M53.71,26.84C52.52,13.19,40.49,3.09,26.84,4.29C13.19,5.48,3.1,17.52,4.29,31.16C5.48,44.81,17.52,54.9,31.16,53.71 C44.81,52.52,54.9,40.49,53.71,26.84"/>
    </g>
    <g fill="#4D4040">
      <polygon points="149.44,43.14 149.86,36.6 149.64,36.48 144.03,36.67 129.24,36.67 129.08,38.62 132.22,39.3 132.22,53.57 129.08,54.25 129.24,56.2 149.89,56.2 150.53,49.19 147.97,48.96 146.69,53.48 136.12,53.48 136.12,47.07 142.01,47.07 142.91,50.08 144.99,49.92 144.99,42.21 143.01,42.05 142.01,44.39 136.12,44.39 136.12,39.39 146.63,39.39 146.92,43.01"/>
      <path d="M125.82,47.88l2.11-0.54l-0.13-1.89h-9.38l-0.16,1.89l3.65,0.67v4.77c-1.54,1.06-3.39,1.63-5.44,1.63 c-4.83,0-7.94-2.85-7.94-7.97c0-5.12,3.43-8,8.26-8c1.92,0,4.07,0.48,5.6,1.54l0.38,3.3l2.56,0.13l0.45-5.8 c-2.82-1.22-6.15-1.73-9.32-1.73c-7.43,0-11.91,4.61-11.91,10.57S108.73,57,116.06,57c2.27,0,4.58-0.54,6.44-1.7l2.59,1.28 l0.74-0.35V47.88z"/>
      <path d="M95.22,48.1h-7.97l4-8.04h0.32L95.22,48.1z M105.18,54.25l-2.92-0.61l-8.61-17.55h-0.19l-3.78,1.09 l-1.76,3.88l-6.85,12.52l-3.2,0.67l0.16,1.95h9.35l0.16-1.95l-3.01-0.64l1.44-2.88h10.47l1.38,2.88l-2.98,0.64L95,56.2h10.02 L105.18,54.25z"/>
      <path d="M78.59,42.65c0,3.17-2.34,4.45-5.99,4.45c-2.15,0-3.78-0.16-5.57-0.48V39.2c1.82-0.32,3.49-0.48,5.03-0.48 C75.1,38.72,78.59,39.26,78.59,42.65 M82.5,42.82c0-5.67-5.32-6.72-10.76-6.72c-4.03,0-7.72,0.35-11.94,0.99l0.16,1.99l3.14,0.29 v14.18l-3.3,0.74l0.16,1.92h10.02l0.16-1.92l-3.11-0.7v-4.35c2.31,0.45,4.07,0.64,6.56,0.64C78.88,49.86,82.5,47.24,82.5,42.82"/>
      <path d="M68.1,28.93l0.9-0.12l-0.14-2.94l-0.15-0.04l-2.15,0.1h-4.78l-1.67-0.1l-0.15,0.04l-0.14,2.94l0.91,0.12 l0.49-1.95l2.44,0.05v5.67l-1.27,0.28l0.09,0.78h3.89l0.09-0.78l-1.26-0.28v-5.67l2.42-0.05L68.1,28.93z M78.83,32.71v-5.72 l1.26-0.27l-0.06-0.78h-3.95l-0.07,0.78l1.26,0.27v2.24H72.6v-2.24l1.26-0.27l-0.06-0.78h-3.95l-0.06,0.78l1.26,0.27v5.72 l-1.26,0.27l0.06,0.78h3.95l0.06-0.78l-1.26-0.27v-2.39h4.67v2.39l-1.26,0.27l0.07,0.78h3.95l0.06-0.78L78.83,32.71z M83.74,32.67 v-2.56h2.36l0.36,1.2l0.83-0.06v-3.09l-0.79-0.06l-0.4,0.94h-2.36v-2h4.21l0.12,1.45l1.01,0.05l0.17-2.62l-0.09-0.05l-2.24,0.08 h-5.92l-0.06,0.78l1.26,0.27v5.72l-1.26,0.27l0.06,0.78h8.27l0.26-2.81l-1.02-0.09l-0.51,1.81H83.74z"/>
      <polygon points="123.08,21.4 123.08,12.47 125.04,12.06 124.94,10.83 119.37,10.83 115.17,19.12 114.99,19.12 110.71,10.83 105.13,10.83 105.03,12.06 106.89,12.45 106.89,21.42 105.03,21.82 105.13,23.04 110.51,23.04 110.61,21.82 108.83,21.42 108.83,17.16 108.61,12.67 108.89,12.67 114.21,23.02 115.33,22.84 120.42,12.72 120.68,12.72 120.68,21.4 118.58,21.82 118.68,23.04 124.94,23.04 125.04,21.82"/>
      <path d="M102.36,16.94c0,3.14-1.84,4.94-4.86,4.94c-3.02,0-4.86-1.8-4.86-4.94c0-3.14,1.84-4.94,4.86-4.94 C100.52,11.99,102.36,13.79,102.36,16.94 M104.85,16.94c0-3.92-2.9-6.6-7.34-6.6c-4.44,0-7.34,2.68-7.34,6.6 c0,3.92,2.9,6.6,7.34,6.6C101.94,23.54,104.85,20.86,104.85,16.94"/>
      <path d="M81.83,17.16c-1.34,0-2.36-0.1-3.48-0.3v-4.44c1.14-0.2,2.18-0.3,3.14-0.3c1.9,0,4.08,0.34,4.08,2.46 C85.57,16.56,84.11,17.16,81.83,17.16 M90.24,21.46l-0.98-0.56c-0.22,0.44-0.62,0.66-1.1,0.66c-0.32,0-0.7-0.12-0.94-0.46 l-1.44-2.02c-0.28-0.38-0.64-0.6-1.2-0.74V18.2c2.14-0.42,3.52-1.46,3.52-3.58c0-3.34-3.2-4.14-6.8-4.14 c-2.52,0-4.82,0.22-7.46,0.62l0.1,1.24l1.96,0.18v8.87l-2.06,0.46l0.1,1.2h6.26l0.1-1.2l-1.94-0.44v-3 c1.22,0.3,2.1,0.38,3.42,0.38c0.76,0,1.2,0.3,1.5,0.72l1.54,2.5c0.56,0.94,1.54,1.44,2.52,1.44 C88.68,23.44,89.84,22.8,90.24,21.46"/>
      <polygon points="72.35,14.94 72.59,10.79 72.43,10.71 69.04,10.83 59.9,10.83 59.8,12.06 61.76,12.47 61.76,21.4 59.8,21.82 59.9,23.04 66.16,23.04 66.16,21.82 64.2,21.4 64.2,17.74 67.88,17.74 68.54,19.62 69.77,19.56 69.77,14.46 68.6,14.4 67.88,16.06 64.2,16.06 64.2,12.53 70.57,12.53 70.77,14.88"/>
    </g>
  </symbol>

  <symbol id="account" viewBox="-0.25 -0.25 48 48">
    <path fill="currentColor" d="M23.75,0C10.63,0,0,10.63,0,23.75S10.63,47.5,23.75,47.5S47.5,36.87,47.5,23.75S36.87,0,23.75,0z M23.75,2 C35.74,2,45.5,11.76,45.5,23.75c0,5.17-1.82,9.92-4.84,13.66c-0.51-1.16-3.26-2.72-7.28-4.26c-4.46-1.69-5.89-3.12-5.89-6.19 c0-1.84,1.36-1.24,1.96-4.6c0.25-1.41,1.45-0.03,1.68-3.22c0-1.27-0.65-1.59-0.65-1.59s0.33-1.88,0.46-3.33 c0.15-1.81-1-6.47-7.19-6.47c-6.19,0-7.35,4.66-7.19,6.47c0.13,1.45,0.46,3.33,0.46,3.33s-0.65,0.32-0.65,1.59 c0.22,3.19,1.43,1.81,1.68,3.22c0.6,3.36,1.96,2.76,1.96,4.6c0,3.07-1.43,4.5-5.89,6.19c-4.03,1.54-6.78,3.09-7.28,4.26 C3.82,33.67,2,28.92,2,23.75C2,11.76,11.76,2,23.75,2z"/>
  </symbol>

  <symbol id="start-reading" viewBox="0 0 80 80">
    <path fill="currentColor" d="M79.81,36.83C79.81,36.83,79.81,36.83,79.81,36.83C79.77,36.76,69.93,20,61.73,20c-8.21,0-2.33,3-2.33,3 s13.87,6.12,15.68,12.5c-4.81-1.02-10.81-1-13.14-1c-0.02,0-0.04,0.01-0.06,0.01c-0.19,0-0.38-0.01-0.57-0.01 c-2.36,0-4.39,0.15-6.15,0.42c-0.02,0-0.03,0-0.05,0c-0.05,0.01-0.09,0.02-0.13,0.03c-1.29,0.2-2.43,0.47-3.43,0.79 c-3.49,1-6.81,2.3-11.55,2.3c-4.74,0-8.07-1.31-11.56-2.3c-1-0.32-2.14-0.58-3.43-0.79c-0.05-0.01-0.09-0.02-0.13-0.03 c-0.02,0-0.04,0-0.05,0c-1.76-0.26-3.8-0.42-6.15-0.42c-0.19,0-0.37,0.01-0.56,0.01c-0.02,0-0.04-0.01-0.06-0.01 c-2.33,0-8.34-0.02-13.15,1C6.72,29.12,20.59,23,20.59,23s5.88-3-2.33-3C10.05,20,0.19,36.83,0.19,36.83 c-0.42,0.22-0.01,5.22,0.07,5.42c0.13,0.33,2.06,2.68,3.54,8.37h0c0.99,5.29,6,9.38,13.78,9.38c6.42,0,11.34-2.01,14.37-5.64 c0.01-0.02,0.02-0.02,0.03-0.03c4.78-5.53,2.7-9.07,8.03-9.07c5.32,0,3.24,3.54,8.02,9.07c0.01,0.01,0.02,0.02,0.03,0.03 C51.08,57.99,56.01,60,62.42,60c7.41,0,12.79-4.09,13.78-9.38h0c1.47-5.69,3.41-8.03,3.54-8.37 C79.82,42.06,80.23,37.05,79.81,36.83z M17.94,56.08c-9,0-10-4.67-10-10.19c0-4.56,1.31-7.47,10.88-7.47c8.75,0,12,2.52,12,6.12 C30.82,50.39,27.52,56.08,17.94,56.08z M62.19,56.08c-9.58,0-12.89-5.69-12.89-11.55c0-3.59,3.25-6.12,12-6.12 c9.58,0,10.89,2.92,10.89,7.47C72.18,51.41,71.18,56.08,62.19,56.08z"/>
  </symbol>

  <symbol id="start-transcribing" viewBox="0 0 80 80">
    <path fill="currentColor" d="M18.51,79.03c1.22-4.03,2.16-9.65,4.6-17.79c10.79-1.78,16.98,0,23.83-12.55c-5.25,0.67-15.1-5.6-13.6-4.02 c6.57,2.61,18.21,2.81,28.34-15.45c-12.67,2.81-19.61-1.68-17.73-1.87c3.47-0.18,14.92-0.94,20.83-6.83 c3.1-2.99,4.51-10.39,3.29-13.01c-1.5-3.18-10.61-7.95-15.68-7.49C47.32,0.5,34.65,12.76,34.56,16.97 c0.09,2.53-0.09-5.9,3.94-13.76C34.18,5.18,24.05,13.7,21.52,18.84c-4.6,9.64-0.56,25.66-1.5,24.06 c-2.35-4.12-2.72-7.29-3.94-16.66c-7.88,11.6-4.5,22.65,2.06,32.66c-2.44,6.64-2.81,14.22-3,18.06 C15.04,80.15,18.04,80.81,18.51,79.03z"/>
  </symbol>

  <symbol id="start-project" viewBox="0 0 80 80">
    <path fill="currentColor" d="M75,18.39c0-0.16,0-0.24,0-0.4c-0.25-1.6-1.85-2.41-3.22-1.84c-1.61,0.72-3.14,1.44-4.74,2.08 c-2.74,1.12-5.4,2.32-8.21,3.45c-1.77,0.72-3.54,1.6-5.31,2.32c-2.66,1.12-5.31,2.25-8.05,3.36c-1.37,0.56-2.73,1.28-4.1,1.76 c-2.01,0.72-4.02,0.8-6.12,0.48c-2.01-0.32-3.94-0.72-5.79-1.93c1.37-0.56,2.73-1.12,4.02-1.76c4.02-1.77,8.13-3.45,12.07-5.21 c3.46-1.53,6.84-2.97,10.38-4.49c0.56-0.24,1.04-0.64,1.77-0.32c1.13,0.56,2.25,1.04,3.54,1.52c0-1.92,0-3.69,0-5.53 c0-1.28-1.45-2.24-2.66-1.85c-1.29,0.48-2.49,1.12-3.7,1.61c-2.65,1.04-5.23,2.24-7.8,3.37c-1.77,0.72-3.54,1.52-5.31,2.32 c-2.57,1.12-5.15,2.17-7.81,3.29c-1.85,0.8-3.7,1.52-5.47,2.32c-1.93,0.88-3.54,2.24-3.54,4.97c0.08,14.99,0,30.06,0,45.05 c0,0.56,0.08,1.05,0.32,1.61c0.73,2,2.33,3.05,4.19,3.77c2.01,0.79,4.02,1.27,6.2,1.52c2.17,0.25,4.26,0.16,6.35-0.48 c3.06-0.96,5.87-2.49,8.93-3.69c2.25-0.96,4.51-2,6.68-2.97c3.05-1.28,6.12-2.56,9.25-3.92c2.17-0.96,4.34-1.92,6.51-2.81 c0.97-0.4,1.61-1.28,1.61-2.32C75,48.84,75,33.62,75,18.39z M58.02,61.83c0,0-10.94-3.37-10.94-12.34c0-8.97,7.8-13.71,10.7-7.54 c0,0,2.5-8.1,7.64-6.9C70.66,36.03,69.85,48.37,58.02,61.83z M33,17.11c1.69-0.72,3.38-1.53,5.07-2.24 c3.06-1.28,6.12-2.57,9.33-3.93c2.26-0.96,4.59-2,6.84-2.96c0.48-0.24,0.48-0.4,0.4-0.8c-0.24-0.72-0.72-1.12-1.37-1.44h-0.96 c-1.69,0.56-3.3,1.36-4.91,2.08c-3.06,1.29-6.11,2.57-9.17,3.93c-2.17,0.96-4.35,1.92-6.6,2.88c-2.74,1.2-5.55,2.41-8.37,3.53 c-4.83,2-8.93,1.2-9.82,0.96c-1.2-0.32-2.41-0.64-3.54-1.28c-0.16-0.08-0.32-0.16-0.32-0.32c0-0.24,0.24-0.16,0.32-0.16 c1.45-0.64,2.82-1.28,4.26-1.92c1.77-0.73,3.46-1.53,5.23-2.25c2.98-1.2,5.87-2.56,8.94-3.77c2.65-1.12,5.23-2.32,7.88-3.45 c0.56-0.24,1.13-0.32,1.77,0.08c0.81,0.48,1.69,0.8,2.58,1.12c0.4,0.16,0.8,0.16,0.72-0.56C41.13,5,41.45,3.4,41.13,1.8 c-0.24-1.36-1.61-2.09-2.66-1.69c-1.77,0.56-3.46,1.36-5.23,2.09C31.07,3.08,28.97,4.12,26.8,5c-2.65,1.04-5.31,2.24-7.89,3.36 c-1.77,0.8-3.46,1.52-5.23,2.25c-2.09,0.88-4.27,1.68-6.19,2.72C6.05,14.14,5,15.18,5,17.03C5,32.42,5,47.81,5,63.2 c0,1.52,0.72,2.73,1.85,3.61c2.82,2.16,6.19,2.81,9.74,3.13c1.13,0.08,2.26-0.16,3.38-0.16c1.05-0.08,1.13-0.16,1.13-1.2 c0-13.71,0-27.42,0-41.13c0-3.21,1.61-5.53,4.34-6.98C27.85,19.19,30.43,18.23,33,17.11z"/>
  </symbol>

  <symbol id="start-server" viewBox="0 0 80 80">
    <path fill="currentColor" d="M40,64.99c-1.49,0-2.99-0.78-4.54-2.33c-0.61-0.6-0.61-1.6,0-2.21c0.61-0.61,1.59-0.61,2.21,0 c0.95,0.95,1.72,1.42,2.33,1.42s1.38-0.47,2.33-1.42c0.61-0.61,1.59-0.61,2.21,0c0.61,0.61,0.61,1.61,0,2.21 C42.99,64.22,41.5,64.99,40,64.99z M0,41.05c0,3.9,0.33,7.44,1,10.6c0.66,3.18,1.6,5.93,2.81,8.25c1.21,2.33,2.74,4.37,4.58,6.12 c1.85,1.75,3.86,3.2,6.03,4.33c2.16,1.14,4.64,2.05,7.44,2.76c2.78,0.7,5.63,1.19,8.52,1.47c2.89,0.28,6.06,0.42,9.54,0.42 c3.47,0,6.66-0.14,9.56-0.42c2.9-0.28,5.75-0.77,8.55-1.47c2.78-0.7,5.27-1.61,7.45-2.76c2.18-1.13,4.2-2.58,6.07-4.33 c1.86-1.75,3.39-3.79,4.61-6.12c1.2-2.32,2.15-5.07,2.83-8.25c0.68-3.17,1.02-6.7,1.02-10.6c0-6.98-2.17-12.99-6.5-18.04 c0.25-0.67,0.47-1.45,0.64-2.31c0.18-0.87,0.36-2.09,0.52-3.68c0.17-1.58,0.1-3.41-0.19-5.49c-0.29-2.08-0.83-4.19-1.64-6.35 l-0.62-0.13c-0.41-0.08-1.1-0.06-2.04,0.08c-0.94,0.14-2.05,0.39-3.31,0.75c-1.26,0.36-2.9,1.09-4.9,2.17 c-2,1.08-4.12,2.45-6.33,4.1C51.85,11,46.64,9.8,40,9.8c-6.64,0-11.86,1.2-15.67,2.35c-2.22-1.65-4.33-3.02-6.35-4.08 c-2.02-1.06-3.62-1.8-4.83-2.19c-1.2-0.39-2.33-0.64-3.35-0.76C8.76,5.02,8.11,4.98,7.81,5.02c-0.29,0.04-0.5,0.09-0.64,0.15 C6.36,7.33,5.8,9.45,5.5,11.53c-0.31,2.07-0.37,3.9-0.2,5.47c0.17,1.57,0.34,2.8,0.54,3.7c0.19,0.9,0.41,1.67,0.66,2.31 C2.17,28.02,0,34.04,0,41.05z M10.67,49.96c0-4.54,1.66-8.65,5-12.33c0.99-1.13,2.15-1.98,3.47-2.56c1.32-0.57,2.82-0.91,4.5-0.98 c1.68-0.08,3.28-0.06,4.81,0.05c1.53,0.1,3.42,0.26,5.67,0.44c2.25,0.19,4.19,0.29,5.83,0.29c1.64,0,3.58-0.1,5.84-0.29 c2.25-0.19,4.14-0.34,5.67-0.44c1.52-0.11,3.13-0.13,4.81-0.05c1.69,0.08,3.19,0.41,4.52,0.98c1.33,0.59,2.5,1.43,3.5,2.56 c3.34,3.69,5,7.8,5,12.33c0,2.65-0.28,5.03-0.84,7.1c-0.55,2.08-1.25,3.83-2.1,5.22c-0.85,1.41-2.03,2.59-3.56,3.57 c-1.53,0.97-3.01,1.72-4.44,2.24c-1.43,0.53-3.28,0.95-5.54,1.24c-2.26,0.3-4.29,0.48-6.08,0.54c-1.79,0.07-4.05,0.09-6.77,0.09 c-2.71,0-4.97-0.02-6.75-0.09c-1.78-0.07-3.8-0.24-6.07-0.54c-2.26-0.3-4.1-0.71-5.53-1.24c-1.44-0.52-2.92-1.28-4.44-2.24 c-1.53-0.98-2.72-2.16-3.57-3.57c-0.85-1.4-1.55-3.15-2.11-5.22C10.94,54.98,10.67,52.61,10.67,49.96z M20,47.5 c0,4.15,2.24,7.51,5,7.51c2.76,0,5-3.36,5-7.51c0-4.13-2.24-7.5-5-7.5C22.24,40,20,43.36,20,47.5z M50,47.5 c0,4.15,2.24,7.51,5,7.51s5-3.36,5-7.51c0-4.13-2.24-7.5-5-7.5S50,43.36,50,47.5z"/>
  </symbol>

</svg>