<svg xmlns="http://www.w3.org/2000/svg" xmlns:xlink="http://www.w3.org/1999/xlink" width="0" height="0">
  <symbol id="site-logo" viewBox="0 0 152 58">
    <g>
      <path fill="#4D4040" d="M56.89,26.56c-1.35-15.4-14.93-26.8-30.33-25.45C11.16,2.46-0.24,16.04,1.11,31.44 c1.35,15.41,14.93,26.8,30.33,25.45C46.84,55.54,58.24,41.96,56.89,26.56"/>
      <path fill="#E4B665" d="M46.59,43.76c-8.15,9.71-22.63,10.98-32.35,2.83c-9.72-8.15-10.98-22.63-2.83-32.35 c6.46-7.7,16.89-10.08,25.77-6.69c-1.47,1.69-4,4.6-4.36,4.9c-0.49,0.4-1.27,0.39-1.62,0.96c-0.08,0.77,0.38,1.55,0.78,2.15 c0.16,0.23,0.35,0.52,0.44,0.77c-3.11,3.76-6.4,7.11-9.51,9.87c-0.51,0.45-1.14,0.88-1.37,1.3c-0.19,0.35-0.16,1.08-0.22,1.72 c-0.04,0.47,0.45,4.86-4.04,12.28c-0.13,0.19-0.41,0.64-0.74,0.88c0.04,0.04,0.46,0.38,0.59,0.5l8.68-10.35 c-0.69-0.68-0.75-1.78-0.11-2.54c0.67-0.79,1.85-0.9,2.65-0.23c0.79,0.67,0.9,1.85,0.23,2.65c-0.63,0.75-1.73,0.88-2.52,0.33 l-8.68,10.35c0.14,0.12,0.55,0.46,0.59,0.5c0.18-0.37,0.58-0.72,0.74-0.88c6.52-5.71,10.93-5.98,11.39-6.11 c0.62-0.17,1.35-0.26,1.66-0.51c0.38-0.3,0.69-0.99,1.05-1.57c2.18-3.54,4.9-7.36,8.07-11.07c0.27,0.04,0.59,0.18,0.84,0.3 c0.66,0.29,1.51,0.61,2.26,0.39c0.5-0.45,0.36-1.21,0.66-1.76c0.23-0.41,2.65-3.41,4.07-5.15C53.59,25.38,53.05,36.06,46.59,43.76 M53.71,26.84C52.52,13.19,40.49,3.09,26.84,4.29C13.19,5.48,3.1,17.52,4.29,31.16C5.48,44.81,17.52,54.9,31.16,53.71 C44.81,52.52,54.9,40.49,53.71,26.84"/>
    </g>
    <g fill="#4D4040">
      <polygon points="149.44,43.14 149.86,36.6 149.64,36.48 144.03,36.67 129.24,36.67 129.08,38.62 132.22,39.3 132.22,53.57 129.08,54.25 129.24,56.2 149.89,56.2 150.53,49.19 147.97,48.96 146.69,53.48 136.12,53.48 136.12,47.07 142.01,47.07 142.91,50.08 144.99,49.92 144.99,42.21 143.01,42.05 142.01,44.39 136.12,44.39 136.12,39.39 146.63,39.39 146.92,43.01"/>
      <path d="M125.82,47.88l2.11-0.54l-0.13-1.89h-9.38l-0.16,1.89l3.65,0.67v4.77c-1.54,1.06-3.39,1.63-5.44,1.63 c-4.83,0-7.94-2.85-7.94-7.97c0-5.12,3.43-8,8.26-8c1.92,0,4.07,0.48,5.6,1.54l0.38,3.3l2.56,0.13l0.45-5.8 c-2.82-1.22-6.15-1.73-9.32-1.73c-7.43,0-11.91,4.61-11.91,10.57S108.73,57,116.06,57c2.27,0,4.58-0.54,6.44-1.7l2.59,1.28 l0.74-0.35V47.88z"/>
      <path d="M95.22,48.1h-7.97l4-8.04h0.32L95.22,48.1z M105.18,54.25l-2.92-0.61l-8.61-17.55h-0.19l-3.78,1.09 l-1.76,3.88l-6.85,12.52l-3.2,0.67l0.16,1.95h9.35l0.16-1.95l-3.01-0.64l1.44-2.88h10.47l1.38,2.88l-2.98,0.64L95,56.2h10.02 L105.18,54.25z"/>
      <path d="M78.59,42.65c0,3.17-2.34,4.45-5.99,4.45c-2.15,0-3.78-0.16-5.57-0.48V39.2c1.82-0.32,3.49-0.48,5.03-0.48 C75.1,38.72,78.59,39.26,78.59,42.65 M82.5,42.82c0-5.67-5.32-6.72-10.76-6.72c-4.03,0-7.72,0.35-11.94,0.99l0.16,1.99l3.14,0.29 v14.18l-3.3,0.74l0.16,1.92h10.02l0.16-1.92l-3.11-0.7v-4.35c2.31,0.45,4.07,0.64,6.56,0.64C78.88,49.86,82.5,47.24,82.5,42.82"/>
      <path d="M68.1,28.93l0.9-0.12l-0.14-2.94l-0.15-0.04l-2.15,0.1h-4.78l-1.67-0.1l-0.15,0.04l-0.14,2.94l0.91,0.12 l0.49-1.95l2.44,0.05v5.67l-1.27,0.28l0.09,0.78h3.89l0.09-0.78l-1.26-0.28v-5.67l2.42-0.05L68.1,28.93z M78.83,32.71v-5.72 l1.26-0.27l-0.06-0.78h-3.95l-0.07,0.78l1.26,0.27v2.24H72.6v-2.24l1.26-0.27l-0.06-0.78h-3.95l-0.06,0.78l1.26,0.27v5.72 l-1.26,0.27l0.06,0.78h3.95l0.06-0.78l-1.26-0.27v-2.39h4.67v2.39l-1.26,0.27l0.07,0.78h3.95l0.06-0.78L78.83,32.71z M83.74,32.67 v-2.56h2.36l0.36,1.2l0.83-0.06v-3.09l-0.79-0.06l-0.4,0.94h-2.36v-2h4.21l0.12,1.45l1.01,0.05l0.17-2.62l-0.09-0.05l-2.24,0.08 h-5.92l-0.06,0.78l1.26,0.27v5.72l-1.26,0.27l0.06,0.78h8.27l0.26-2.81l-1.02-0.09l-0.51,1.81H83.74z"/>
      <polygon points="123.08,21.4 123.08,12.47 125.04,12.06 124.94,10.83 119.37,10.83 115.17,19.12 114.99,19.12 110.71,10.83 105.13,10.83 105.03,12.06 106.89,12.45 106.89,21.42 105.03,21.82 105.13,23.04 110.51,23.04 110.61,21.82 108.83,21.42 108.83,17.16 108.61,12.67 108.89,12.67 114.21,23.02 115.33,22.84 120.42,12.72 120.68,12.72 120.68,21.4 118.58,21.82 118.68,23.04 124.94,23.04 125.04,21.82"/>
      <path d="M102.36,16.94c0,3.14-1.84,4.94-4.86,4.94c-3.02,0-4.86-1.8-4.86-4.94c0-3.14,1.84-4.94,4.86-4.94 C100.52,11.99,102.36,13.79,102.36,16.94 M104.85,16.94c0-3.92-2.9-6.6-7.34-6.6c-4.44,0-7.34,2.68-7.34,6.6 c0,3.92,2.9,6.6,7.34,6.6C101.94,23.54,104.85,20.86,104.85,16.94"/>
      <path d="M81.83,17.16c-1.34,0-2.36-0.1-3.48-0.3v-4.44c1.14-0.2,2.18-0.3,3.14-0.3c1.9,0,4.08,0.34,4.08,2.46 C85.57,16.56,84.11,17.16,81.83,17.16 M90.24,21.46l-0.98-0.56c-0.22,0.44-0.62,0.66-1.1,0.66c-0.32,0-0.7-0.12-0.94-0.46 l-1.44-2.02c-0.28-0.38-0.64-0.6-1.2-0.74V18.2c2.14-0.42,3.52-1.46,3.52-3.58c0-3.34-3.2-4.14-6.8-4.14 c-2.52,0-4.82,0.22-7.46,0.62l0.1,1.24l1.96,0.18v8.87l-2.06,0.46l0.1,1.2h6.26l0.1-1.2l-1.94-0.44v-3 c1.22,0.3,2.1,0.38,3.42,0.38c0.76,0,1.2,0.3,1.5,0.72l1.54,2.5c0.56,0.94,1.54,1.44,2.52,1.44 C88.68,23.44,89.84,22.8,90.24,21.46"/>
      <polygon points="72.35,14.94 72.59,10.79 72.43,10.71 69.04,10.83 59.9,10.83 59.8,12.06 61.76,12.47 61.76,21.4 59.8,21.82 59.9,23.04 66.16,23.04 66.16,21.82 64.2,21.4 64.2,17.74 67.88,17.74 68.54,19.62 69.77,19.56 69.77,14.46 68.6,14.4 67.88,16.06 64.2,16.06 64.2,12.53 70.57,12.53 70.77,14.88"/>
    </g>
  </symbol>

</svg>