<svg xmlns="http://www.w3.org/2000/svg" xmlns:xlink="http://www.w3.org/1999/xlink" width="0" height="0">

  <symbol id="logo" viewBox="0 0 134 50">
    <path fill="#4D4040" d="M49.9,22.82C48.7,9.07,36.58-1.11,22.82,0.1C9.07,1.3-1.11,13.42,0.1,27.18 C1.3,40.93,13.42,51.11,27.18,49.9C40.93,48.7,51.11,36.58,49.9,22.82"/>
    <path fill="#E4B665" d="M40.71,38.17c-7.28,8.68-20.21,9.81-28.88,2.53C3.15,33.43,2.02,20.49,9.3,11.82 c5.77-6.87,15.08-9.01,23.01-5.98c-1.31,1.51-3.57,4.1-3.9,4.37c-0.44,0.36-1.13,0.35-1.45,0.85c-0.07,0.69,0.34,1.39,0.7,1.93 c0.14,0.2,0.32,0.46,0.39,0.69c-2.78,3.37-5.72,6.35-8.49,8.81c-0.46,0.41-1.01,0.79-1.22,1.17c-0.17,0.31-0.15,0.96-0.2,1.54 c-0.04,0.42,0.4,4.34-3.61,10.96c-0.11,0.17-0.36,0.57-0.66,0.78c0.04,0.03,0.41,0.34,0.53,0.45l7.76-9.24 c-0.61-0.61-0.67-1.59-0.1-2.27c0.6-0.71,1.65-0.8,2.36-0.2c0.71,0.59,0.8,1.65,0.21,2.36c-0.56,0.67-1.54,0.79-2.25,0.29 l-7.76,9.24c0.12,0.1,0.49,0.42,0.53,0.44c0.16-0.33,0.52-0.64,0.66-0.79c5.82-5.1,9.76-5.34,10.17-5.45 c0.56-0.15,1.2-0.23,1.48-0.46c0.34-0.27,0.61-0.89,0.93-1.41c1.94-3.15,4.38-6.57,7.2-9.89c0.24,0.04,0.53,0.17,0.75,0.27 c0.59,0.26,1.35,0.54,2.02,0.35c0.44-0.4,0.32-1.08,0.59-1.57c0.2-0.37,2.37-3.05,3.63-4.6C46.96,21.76,46.47,31.31,40.71,38.17 M47.06,23.07C46,10.88,35.26,1.86,23.07,2.94C10.89,4,1.86,14.75,2.94,26.93C4,39.11,14.75,48.13,26.93,47.06 C39.11,46,48.13,35.26,47.06,23.07"/>
    <path fill="#4D4040" d="M130.77,36.17l-0.25-3.23h-9.38v4.46h5.26l0.89-2.09l1.77,0.15v6.89l-1.86,0.15l-0.8-2.69h-5.26v5.72h9.43 l1.14-4.03l2.28,0.2l-0.57,6.26h-18.44l-0.14-1.74l2.8-0.6V32.86l-2.8-0.6l0.14-1.74h13.21l5-0.17l0.2,0.12l-0.37,5.83L130.77,36.17 z M111.94,40.52l1.88-0.49l-0.11-1.69h-8.38l-0.14,1.69l3.26,0.6v4.26c-1.37,0.95-3.03,1.46-4.86,1.46c-4.32,0-7.09-2.54-7.09-7.12 c0-4.57,3.06-7.14,7.38-7.14c1.71,0,3.63,0.43,5,1.37l0.34,2.94l2.29,0.12l0.4-5.18c-2.52-1.08-5.49-1.54-8.32-1.54 c-6.63,0-10.64,4.11-10.64,9.43c0,5.32,3.72,9.44,10.27,9.44c2.03,0,4.09-0.49,5.74-1.51l2.32,1.14l0.66-0.31V40.52z M81.36,33.54 h-0.28l-3.58,7.17h7.12L81.36,33.54z M93.37,47.95h-8.95l-0.14-1.74l2.66-0.57l-1.23-2.57h-9.35l-1.28,2.57l2.69,0.57l-0.15,1.74 h-8.35l-0.14-1.74l2.86-0.6l6.12-11.18l1.57-3.46L83.04,30h0.17l7.69,15.67l2.6,0.54L93.37,47.95z M69.77,35.86 c0-3.03-3.12-3.52-5.83-3.52c-1.37,0-2.86,0.14-4.49,0.43v6.63c1.6,0.29,3.06,0.43,4.98,0.43C67.69,39.83,69.77,38.69,69.77,35.86 M73.26,36c0,3.95-3.23,6.29-7.95,6.29c-2.23,0-3.8-0.17-5.86-0.58v3.89l2.78,0.63l-0.14,1.72h-8.95l-0.15-1.72l2.95-0.66V32.92 l-2.8-0.26l-0.15-1.77C56.77,30.31,60.05,30,63.66,30C68.52,30,73.26,30.94,73.26,36 M59.95,21.86l-2.16,0.05v5.06l1.12,0.25 l-0.08,0.7h-3.47l-0.08-0.7l1.14-0.25v-5.06l-2.18-0.05l-0.43,1.74l-0.81-0.1l0.13-2.62l0.14-0.03l1.49,0.09h4.27l1.92-0.09 l0.14,0.03l0.13,2.62l-0.8,0.1L59.95,21.86z M71.1,27.22l-0.06,0.7h-3.53l-0.06-0.7l1.12-0.24v-2.13h-4.17v2.13l1.12,0.24l-0.06,0.7 h-3.52l-0.06-0.7l1.12-0.24v-5.11l-1.12-0.24l0.06-0.7h3.52l0.06,0.7l-1.12,0.24v2h4.17v-2l-1.12-0.24l0.06-0.7h3.53l0.06,0.7 l-1.12,0.24v5.11L71.1,27.22z M78.15,26.95l0.45-1.61l0.92,0.08l-0.23,2.51H71.9l-0.06-0.7l1.12-0.24v-5.11l-1.12-0.24l0.06-0.7 h5.29l2-0.07l0.08,0.05l-0.15,2.33l-0.9-0.05l-0.1-1.29h-3.76v1.79h2.11l0.36-0.84l0.71,0.06v2.76l-0.75,0.06l-0.32-1.08h-2.11v2.29 H78.15z M109.49,16.88V8.91l1.75-0.37l-0.09-1.1h-4.97l-3.75,7.4h-0.16l-3.82-7.4h-4.98l-0.09,1.1l1.66,0.36v8l-1.66,0.35l0.09,1.09 h4.81l0.09-1.09l-1.59-0.35v-3.81l-0.2-4h0.25l4.75,9.24l1-0.16l4.54-9.04h0.23v7.76l-1.87,0.37l0.09,1.09h5.59l0.09-1.09 L109.49,16.88z M90.99,12.9c0-2.81-1.64-4.41-4.34-4.41c-2.7,0-4.34,1.61-4.34,4.41c0,2.8,1.65,4.41,4.34,4.41 C89.35,17.31,90.99,15.7,90.99,12.9 M93.21,12.9c0,3.5-2.59,5.9-6.56,5.9c-3.97,0-6.55-2.39-6.55-5.9c0-3.5,2.59-5.9,6.55-5.9 C90.62,7,93.21,9.39,93.21,12.9 M72.66,13.09c2.04,0,3.34-0.54,3.34-2.31c0-1.89-1.94-2.2-3.64-2.2c-0.86,0-1.79,0.09-2.81,0.27 v3.97C70.56,13,71.47,13.09,72.66,13.09 M80.17,16.93c-0.36,1.2-1.4,1.77-2.59,1.77c-0.87,0-1.75-0.45-2.25-1.28l-1.38-2.24 c-0.27-0.37-0.66-0.64-1.34-0.64c-1.17,0-1.96-0.07-3.05-0.34v2.68l1.73,0.39l-0.09,1.07H65.6l-0.09-1.07l1.84-0.41V8.95L65.6,8.78 l-0.09-1.1c2.36-0.36,4.42-0.56,6.66-0.56c3.22,0,6.08,0.72,6.08,3.7c0,1.89-1.23,2.82-3.15,3.2v0.13c0.5,0.13,0.83,0.32,1.07,0.66 l1.29,1.8c0.21,0.3,0.56,0.41,0.84,0.41c0.43,0,0.79-0.2,0.99-0.59L80.17,16.93 M64.19,11.1l0.21-3.69l-0.14-0.07l-3.02,0.1h-8.17 l-0.09,1.1l1.75,0.37v7.98l-1.75,0.37l0.09,1.09h5.59v-1.09l-1.75-0.37v-3.27h3.29l0.59,1.68l1.09-0.06v-4.55l-1.04-0.05l-0.64,1.48 h-3.29V8.96h5.68l0.18,2.09L64.19,11.1z"/>
  </symbol>

  <symbol id="header-user" viewBox="0 0 28 28">
    <path fill="currentColor" d="M14,0.12C6.34,0.12,0.12,6.34,0.12,14S6.34,27.88,14,27.88S27.88,21.66,27.88,14S21.66,0.12,14,0.12z M14,1.12 c7.1,0,12.88,5.78,12.88,12.88c0,3.11-1.11,5.96-2.95,8.19c-0.01-0.69-1.71-1.7-4.31-2.69c-2.61-0.99-3.44-1.83-3.44-3.62 c0-1.08,0.79-0.73,1.14-2.69c0.15-0.82,0.85-0.02,0.98-1.88c0-0.75-0.38-0.93-0.38-0.93s0.2-1.1,0.27-1.94 c0.09-1.05-0.58-3.78-4.2-3.78c-3.62,0-4.29,2.72-4.2,3.78c0.08,0.85,0.27,1.94,0.27,1.94s-0.38,0.18-0.38,0.93 c0.13,1.86,0.83,1.06,0.98,1.88c0.35,1.96,1.14,1.61,1.14,2.69c0,1.79-0.83,2.63-3.44,3.62c-2.6,0.99-4.29,2-4.31,2.69 C2.23,19.96,1.12,17.11,1.12,14C1.12,6.9,6.9,1.12,14,1.12z"/>
  </symbol>

  <symbol id="start-reading" viewBox="0 0 80 80">
    <path fill="currentColor" d="M79.81,36.83C79.81,36.83,79.81,36.83,79.81,36.83C79.77,36.76,69.93,20,61.73,20c-8.21,0-2.33,3-2.33,3 s13.87,6.12,15.68,12.5c-4.81-1.02-10.81-1-13.14-1c-0.02,0-0.04,0.01-0.06,0.01c-0.19,0-0.38-0.01-0.57-0.01 c-2.36,0-4.39,0.15-6.15,0.42c-0.02,0-0.03,0-0.05,0c-0.05,0.01-0.09,0.02-0.13,0.03c-1.29,0.2-2.43,0.47-3.43,0.79 c-3.49,1-6.81,2.3-11.55,2.3c-4.74,0-8.07-1.31-11.56-2.3c-1-0.32-2.14-0.58-3.43-0.79c-0.05-0.01-0.09-0.02-0.13-0.03 c-0.02,0-0.04,0-0.05,0c-1.76-0.26-3.8-0.42-6.15-0.42c-0.19,0-0.37,0.01-0.56,0.01c-0.02,0-0.04-0.01-0.06-0.01 c-2.33,0-8.34-0.02-13.15,1C6.72,29.12,20.59,23,20.59,23s5.88-3-2.33-3C10.05,20,0.19,36.83,0.19,36.83 c-0.42,0.22-0.01,5.22,0.07,5.42c0.13,0.33,2.06,2.68,3.54,8.37h0c0.99,5.29,6,9.38,13.78,9.38c6.42,0,11.34-2.01,14.37-5.64 c0.01-0.02,0.02-0.02,0.03-0.03c4.78-5.53,2.7-9.07,8.03-9.07c5.32,0,3.24,3.54,8.02,9.07c0.01,0.01,0.02,0.02,0.03,0.03 C51.08,57.99,56.01,60,62.42,60c7.41,0,12.79-4.09,13.78-9.38h0c1.47-5.69,3.41-8.03,3.54-8.37 C79.82,42.06,80.23,37.05,79.81,36.83z M17.94,56.08c-9,0-10-4.67-10-10.19c0-4.56,1.31-7.47,10.88-7.47c8.75,0,12,2.52,12,6.12 C30.82,50.39,27.52,56.08,17.94,56.08z M62.19,56.08c-9.58,0-12.89-5.69-12.89-11.55c0-3.59,3.25-6.12,12-6.12 c9.58,0,10.89,2.92,10.89,7.47C72.18,51.41,71.18,56.08,62.19,56.08z"/>
  </symbol>

  <symbol id="start-transcribing" viewBox="0 0 80 80">
    <path fill="currentColor" d="M18.51,79.03c1.22-4.03,2.16-9.65,4.6-17.79c10.79-1.78,16.98,0,23.83-12.55c-5.25,0.67-15.1-5.6-13.6-4.02 c6.57,2.61,18.21,2.81,28.34-15.45c-12.67,2.81-19.61-1.68-17.73-1.87c3.47-0.18,14.92-0.94,20.83-6.83 c3.1-2.99,4.51-10.39,3.29-13.01c-1.5-3.18-10.61-7.95-15.68-7.49C47.32,0.5,34.65,12.76,34.56,16.97 c0.09,2.53-0.09-5.9,3.94-13.76C34.18,5.18,24.05,13.7,21.52,18.84c-4.6,9.64-0.56,25.66-1.5,24.06 c-2.35-4.12-2.72-7.29-3.94-16.66c-7.88,11.6-4.5,22.65,2.06,32.66c-2.44,6.64-2.81,14.22-3,18.06 C15.04,80.15,18.04,80.81,18.51,79.03z"/>
  </symbol>

  <symbol id="start-project" viewBox="0 0 80 80">
    <path fill="currentColor" d="M4.65,9.07c3.58-0.57,7.48,2.65,8.7,7.18c0.89,2.43,0.96,2.9,1.6,5.03C13.32,22.01,7.98,23.75,4.71,25 c-1.49-1.28-3.76-4.31-4.35-6.51C-0.85,13.88,1.07,9.65,4.65,9.07L4.65,9.07z M33.18,63.47c1.79,2.08,2.44,3.56,3.5,6.75 c1.23,4.25-0.69,8.42-4.28,9.33c-3.58,0.93-7.48-1.82-8.7-6.15c-0.58-2.08-0.71-4.28-0.37-6.16 C27.97,65.57,33.18,63.47,33.18,63.47z M7.67,7.55c6.62-0.12,9.58,13.74,11.49,19.99c2.97,10.1,11.06,26.85,17.07,36.53 c4.18,5.98,5.22,11.7,0.17,15.93c13.34-6.33,26.62-11.18,41.97-15.17c3.61-3.53,0.75-10.12-3.83-16.76 C66.77,37.42,60.06,20.21,56.04,8.3c-2.36-6.99-5.54-8.8-8.84-8.19c0,0-12.42,2.59-16.56,3.35C24.9,4.54,7.67,7.55,7.67,7.55z"/>
  </symbol>

  <symbol id="start-server" viewBox="0 0 80 80">
    <path fill="currentColor" d="M78.66,21.97c-0.68-4.38-5.12-8.38-9.5-8.77c-19.44-1.6-38.89-1.6-58.33,0c-4.38,0.39-8.81,4.39-9.5,8.77 c-1.78,12.02-1.78,24.04,0,36.06c0.68,4.38,5.12,8.38,9.5,8.77c19.44,1.6,38.89,1.6,58.33,0c4.38-0.39,8.81-4.39,9.5-8.77 C80.45,46.01,80.45,33.99,78.66,21.97z M25.06,44.06l-11,11c-0.29,0.29-0.68,0.44-1.06,0.44s-0.77-0.15-1.06-0.44 c-0.59-0.59-0.59-1.54,0-2.12L21.88,43l-9.94-9.94c-0.59-0.59-0.59-1.54,0-2.12c0.59-0.59,1.54-0.59,2.12,0l11,11 C25.65,42.53,25.65,43.47,25.06,44.06z M46,56H28c-0.83,0-1.5-0.67-1.5-1.5S27.17,53,28,53h18c0.83,0,1.5,0.67,1.5,1.5 S46.83,56,46,56z"/>
  </symbol>

  <symbol id="service-planning" viewBox="0 0 80 80">
    <path fill="currentColor" d="M42.53,39.09c-1.58,0-3.04,0.68-4.04,1.93c-1.01,1.24-1.35,2.82-1.13,4.29L37.69,47c0.12,0.34-0.34,0.68-0.67,0.56 c-2.93-1.24-5.06-4.18-4.84-7.67c0.11-4.3,3.6-7.8,7.88-7.8c4.38,0,7.98,3.61,7.98,8.02c0,0.45-0.45,0.68-0.78,0.57l-2.71-1.13 C43.88,39.32,43.2,39.09,42.53,39.09z M60.87,46.55l2.81,1.24c0.45,0.23,0.91,0,1.01-0.45c0.68-2.26,1.01-4.75,1.01-7.24 c0-14.35-11.59-25.98-25.88-25.87C25.87,14.36,14.4,25.88,14.4,39.89c-0.11,14.23,11.48,25.98,25.77,25.98c0.23,0,0.45,0,0.68,0 c0.23,0,0.56-0.22,0.45-0.56l-0.68-3.4c-0.12-0.21-0.33-0.44-0.56-0.44c-11.82,0-21.38-9.61-21.49-21.47 c0.11-11.64,9.56-21.13,21.15-21.24c11.82-0.11,21.49,9.49,21.49,21.35c0,1.92-0.34,3.84-0.79,5.65 C60.42,46.1,60.53,46.44,60.87,46.55z M39.49,0C17.78,0.35,0.11,18.2,0,39.89C0,61.8,17.55,79.77,39.38,80 c6.53,0.11,12.72-1.36,18.12-4.07c0.56-0.23,0.56-0.91,0.11-1.24c-0.56-0.34-1.01-0.79-1.45-1.36l-0.57-0.68 c-0.21-0.34-0.56-0.34-0.89-0.23c-4.39,2.15-9.35,3.28-14.52,3.28C20.81,75.81,4.84,60.11,4.5,40.68 C4.28,20.79,20.25,4.41,40.06,4.41C59.63,4.53,75.49,20.46,75.61,40c0,8.58-3.04,16.38-7.99,22.59c-0.22,0.22-0.22,0.68,0,0.91 l0.23,0.33c0.57,0.68,1.01,1.35,1.24,2.15c0.23,0.56,0.9,0.68,1.24,0.22c6.08-7,9.79-16.27,9.68-26.32 C79.88,17.63,61.65-0.33,39.49,0z M65.37,53.33l-22.73-9.72c-0.45-0.23-1.01,0.23-0.9,0.79l4.73,24.29 c0.11,0.68,1.01,0.79,1.12,0.23l3.83-7.01c0.22-0.44,0.78-0.44,1.12-0.11l7.09,8.81c1.13,1.47,3.38,1.58,4.62,0.12 c1.01-1.13,0.9-2.94,0-4.07l-6.97-8.7c-0.33-0.45-0.11-1.02,0.33-1.13l7.65-2.26C65.93,54.46,65.93,53.55,65.37,53.33z"/>
  </symbol>

  <symbol id="service-support" viewBox="0 0 80 80">
    <path fill="currentColor" d="M54.72,66.35c2.03,2.12,2.03,4.66,0,6.69c-1.44,1.44-2.88,2.79-4.23,4.23c-1.86,2.2-4.23,2.88-7.02,2.71 c-4.06-0.25-7.78-1.52-11.33-3.3c-7.95-3.89-14.71-9.22-20.46-16C7.46,55.69,4,50.19,1.71,44.09c-1.1-2.96-1.86-6.01-1.69-9.22 c0.17-2.03,0.93-3.73,2.37-5.08c1.61-1.53,3.04-3.05,4.65-4.57c2.03-2.03,4.57-2.03,6.59,0c1.27,1.27,2.45,2.45,3.72,3.72 c1.18,1.19,2.45,2.46,3.64,3.64c2.11,2.12,2.11,4.65,0,6.77c-1.52,1.53-3.04,3.05-4.57,4.57C16,44.35,16,44.6,16.17,45.11 c1.01,2.46,2.45,4.57,4.14,6.6c3.3,4.06,7.1,7.7,11.5,10.5c0.93,0.59,2.03,1.01,3.04,1.61c0.51,0.25,0.84,0.17,1.27-0.25 c1.52-1.52,3.04-3.13,4.57-4.65c2.03-2.03,4.57-2.03,6.59,0C49.73,61.36,52.27,63.81,54.72,66.35z M72.64,42.99 c-8.29,8.29-20.88,9.56-30.52,3.89l-0.08-0.08c-3.8,2.88-7.86,3.38-10.74,2.96c-0.93-0.17-1.1-1.44-0.25-1.86 c2.54-1.19,4.23-3.73,5.16-5.76l-0.25-0.25c-8.79-9.9-8.37-25.05,1.1-34.53c9.81-9.82,25.79-9.82,35.59,0 C82.45,17.18,82.45,33.18,72.64,42.99z M51.76,13.79c0,2.29,1.86,4.15,4.14,4.15c2.2,0,4.06-1.86,4.06-4.15s-1.78-4.15-4.06-4.15 C53.62,9.65,51.76,11.51,51.76,13.79z M60.81,36.56c-0.42,0.17-0.76,0.43-1.18,0.59c-0.51,0.17-1.01,0.34-1.52,0.42 c-0.59,0.09-1.1-0.25-1.27-0.85c-0.08-0.42-0.17-0.93-0.08-1.44c0.08-1.01,0.34-1.95,0.51-2.88c0.51-2.96,1.1-5.84,1.61-8.8 c0.17-0.76,0.25-1.61,0.25-2.37c0-0.93-0.59-1.44-1.52-1.44c-1.35,0-2.71,0-3.98,0c-1.27,0-2.53,0-3.8,0c-0.34,0-0.59,0-0.93,0.09 c-0.59,0.08-0.85,0.42-0.93,0.85c-0.08,0.42,0.08,0.76,0.68,1.01c0.42,0.17,0.93,0.17,1.35,0.26c1.01,0.17,1.44,0.51,1.35,1.61 c0,0.17,0,0.34,0,0.51c-0.42,2.54-0.93,5.16-1.35,7.7c-0.26,1.44-0.51,2.96-0.68,4.4c-0.34,2.2,1.78,4.23,3.47,4.4 c1.01,0.17,2.03,0.17,2.96,0.17c2.11,0,3.89-0.93,5.41-2.45c0.25-0.25,0.51-0.59,0.59-1.01C61.91,36.73,61.4,36.31,60.81,36.56z"/>
  </symbol>

  <symbol id="service-deployment" viewBox="0 0 80 80">
    <path fill="currentColor" d="M76.33,28.83H3.67C1.64,28.83,0,30.45,0,32.45V48.1c0,1.99,1.64,3.61,3.67,3.61h72.67c2.02,0,3.67-1.62,3.67-3.61V32.45 C80,30.45,78.36,28.83,76.33,28.83z M53.94,43.77H8.19v-6.98h45.75V43.77z M70.4,43.52c-1.82,0-3.3-1.45-3.3-3.25 c0-1.79,1.48-3.25,3.3-3.25c1.82,0,3.3,1.46,3.3,3.25C73.7,42.07,72.22,43.52,70.4,43.52z M76.33,55.07H3.67 C1.64,55.07,0,56.69,0,58.68v15.66c0,1.99,1.64,3.61,3.67,3.61h72.67c2.02,0,3.67-1.62,3.67-3.61V58.68 C80,56.69,78.36,55.07,76.33,55.07z M53.94,70H8.19v-6.98h45.75V70z M70.4,69.76c-1.82,0-3.3-1.46-3.3-3.25 c0-1.8,1.48-3.25,3.3-3.25c1.82,0,3.3,1.46,3.3,3.25C73.7,68.3,72.22,69.76,70.4,69.76z M76.33,2.05H3.67C1.64,2.05,0,3.67,0,5.67 v15.65c0,1.99,1.64,3.61,3.67,3.61h72.67c2.02,0,3.67-1.62,3.67-3.61V5.66C80,3.67,78.36,2.05,76.33,2.05z M53.94,16.98H8.19V10 h45.75V16.98z M70.4,16.74c-1.82,0-3.3-1.46-3.3-3.25c0-1.79,1.48-3.25,3.3-3.25c1.82,0,3.3,1.46,3.3,3.25 C73.7,15.28,72.22,16.74,70.4,16.74z"/>
  </symbol>

  <symbol id="service-development" viewBox="0 0 80 80">
    <path fill="currentColor" d="M76.18,2H3.82C2.86,2,2,2.86,2,3.82v72.36C2,77.14,2.86,78,3.82,78h72.36c0.96,0,1.82-0.86,1.82-1.82V3.82 C78,2.86,77.14,2,76.18,2z M28.23,6.28c1.28,0,2.25,0.96,2.25,2.25c0,1.29-0.96,2.25-2.25,2.25c-1.28,0-2.25-0.96-2.25-2.25 C25.98,7.25,26.94,6.28,28.23,6.28z M18.7,6.28c1.29,0,2.25,0.96,2.25,2.25c0,1.29-0.96,2.25-2.25,2.25 c-1.29,0-2.25-0.96-2.25-2.25C16.45,7.25,17.52,6.28,18.7,6.28z M9.28,6.28c1.29,0,2.25,0.96,2.25,2.25c0,1.29-0.96,2.25-2.25,2.25 S7.03,9.82,7.03,8.53C7.03,7.25,7.99,6.28,9.28,6.28z M72.65,70.83c0,0.96-0.85,1.82-1.82,1.82H9.17c-0.96,0-1.82-0.85-1.82-1.82 v-51.7c0-0.96,0.85-1.82,1.82-1.82h61.66c0.96,0,1.82,0.85,1.82,1.82V70.83z M66.44,42.68c0.54,0.54,0.75,1.18,0.75,1.93 s-0.32,1.39-0.75,1.93l-9.32,9.2c-0.54,0.43-1.28,0.75-1.93,0.75c-0.75,0-1.5-0.32-2.03-0.96c-0.96-1.07-0.75-2.79,0.21-3.75 l6.32-6.31c0.53-0.53,0.53-1.5,0-2.03l-6.32-6.31c-0.96-0.96-1.18-2.57-0.32-3.64c1.07-1.28,2.89-1.28,3.96-0.21L66.44,42.68z M20.2,43.21c-0.54,0.54-0.54,1.5,0,2.03l6.31,6.32c0.96,0.96,1.18,2.68,0.21,3.75c-0.43,0.85-1.18,1.18-1.93,1.18 c-0.65,0-1.39-0.21-1.93-0.75l-9.42-9.42c-0.54-0.54-0.75-1.18-0.75-1.93c0-0.75,0.32-1.39,0.75-1.93l9.31-9.31 c0.96-0.96,2.57-1.18,3.64-0.32c1.29,1.07,1.29,2.89,0.21,3.96L20.2,43.21z M48.13,29.62L36.9,61.09 c-0.43,1.07-1.39,1.82-2.57,1.82c-0.32,0-0.64,0-0.85-0.1c-1.39-0.54-2.14-2.04-1.61-3.43L43.1,27.8c0.54-1.39,2.03-2.14,3.43-1.6 C47.92,26.73,48.67,28.22,48.13,29.62z"/>
  </symbol>

  <symbol id="service-integration" viewBox="0 0 80 80">
    <path fill="currentColor" d="M55.56,28.89H24.44c-1.25,0-2.22,0.98-2.22,2.22v17.78c0,1.25,0.98,2.22,2.22,2.22h31.11c1.25,0,2.22-0.98,2.22-2.22V31.11 C57.78,29.87,56.8,28.89,55.56,28.89z M53.33,46.67H26.67V33.33h26.67V46.67z M12.71,60.62c-0.89-0.89-2.31-0.89-3.11,0 c-0.89,0.89-0.89,2.31,0,3.11l2.84,2.93H6.67c-1.25,0-2.22-0.98-2.22-2.22V15.56c0-1.25,0.98-2.22,2.22-2.22h15.56V20 c0,1.25,0.98,2.22,2.22,2.22h31.11c1.25,0,2.22-0.98,2.22-2.22V2.22C57.78,0.98,56.8,0,55.56,0H24.44c-1.25,0-2.22,0.98-2.22,2.22 v6.67H6.67C3.02,8.89,0,11.91,0,15.56v48.89c0,3.65,3.02,6.67,6.67,6.67h5.78L9.6,73.95c-0.89,0.89-0.89,2.31,0,3.11 c0.89,0.89,2.31,0.89,3.11,0l6.67-6.67c0.89-0.89,0.89-2.31,0-3.11L12.71,60.62z M26.67,4.44h26.67v13.33H26.67V4.44z M73.33,8.89 h-5.78l2.84-2.84c0.89-0.89,0.89-2.31,0-3.11c-0.89-0.89-2.31-0.89-3.11,0L60.62,9.6c-0.89,0.89-0.89,2.31,0,3.11l6.67,6.67 c0.89,0.89,2.31,0.89,3.11,0c0.89-0.89,0.89-2.31,0-3.11l-2.84-2.93h5.78c1.25,0,2.22,0.98,2.22,2.22v51.11 c0,1.25-0.98,2.22-2.22,2.22H57.78V60c0-1.25-0.98-2.22-2.22-2.22H24.44c-1.25,0-2.22,0.98-2.22,2.22v17.78 c0,1.24,0.98,2.22,2.22,2.22h31.11c1.25,0,2.22-0.98,2.22-2.22v-4.44h15.56c3.65,0,6.67-3.02,6.67-6.67V15.56 C80,11.91,76.98,8.89,73.33,8.89z M53.33,75.56H26.67V62.22h26.67V75.56z"/>
  </symbol>

  <symbol id="service-export" viewBox="0 0 80 80">
    <path fill="currentColor" d="M7.79,66.07h33.33l-1.91,4.24c-0.21,0.47-0.34,0.96-0.43,1.44H4.9c-0.76,0-1.51-0.3-2.05-0.83C2.31,70.38,2,69.65,2,68.91 V2.84c0-0.75,0.31-1.48,0.85-2.01C3.39,0.3,4.14,0,4.9,0h32.82c0.77,0,1.51,0.3,2.05,0.83l14.89,14.56 c0.55,0.54,0.85,1.25,0.85,2.01v6.26c-2.31,1.2-4.31,2.96-5.79,5.2V18.79H37.15c-0.17,0-0.34-0.06-0.46-0.18 c-0.12-0.12-0.18-0.28-0.18-0.45V5.68H7.8h0V66.07z M76.75,46.3c-2.37,5.3-7.58,8.49-13.11,8.67l-9.67,21.45 c-1.36,3.03-4.97,4.41-8.06,3.08c-3.09-1.33-4.5-4.86-3.15-7.89l9.57-21.21c-3.93-4.12-5.21-10.28-2.75-15.77 c2.27-5.06,7.14-8.23,12.4-8.64l-5.47,12.2l4.59,6.78l8.29-1.25l5.47-12.2C78.1,35.59,79.02,41.23,76.75,46.3z M51.58,73.41 c0-1.5-1.24-2.71-2.76-2.71c-1.53,0-2.77,1.21-2.77,2.71c0,1.5,1.24,2.71,2.77,2.71C50.34,76.11,51.58,74.9,51.58,73.41z"/>
  </symbol>

  <symbol id="service-processing" viewBox="0 0 80 80">
    <path fill="currentColor" d="M80,14.56V0H65.44v5.51H14.55V0H0v14.56h5.51v50.88H0V80h14.55v-5.51h50.89V80H80V65.44h-5.51V14.56H80z M3.54,11.02V3.54 h7.48v7.48H3.54z M11.02,76.46H3.54v-7.49h7.48V76.46z M65.44,70.96H14.55v-5.51H9.05V14.56h5.51V9.05h50.89v5.51h5.51v50.88h-5.51 V70.96z M76.46,68.98v7.49h-7.48v-7.49H76.46z M68.98,11.02V9.05h-0.01V3.54h7.49v7.48H68.98z M57.04,52.69l-15.65-37.4h-1.16 l-15.82,37c-1.37,3.25-2.62,5.4-3.75,6.47c-0.55,0.53-1.77,0.96-3.65,1.29v1.23h14.16v-1.23c-2.17-0.16-3.58-0.49-4.23-1.01 c-0.65-0.52-0.98-1.12-0.98-1.8c0-0.86,0.37-2.17,1.12-3.91l3.05-7.1h17.41l2.72,6.47c0.88,2.1,1.33,3.63,1.33,4.61 c0,0.73-0.31,1.35-0.94,1.86c-0.64,0.51-1.84,0.8-3.64,0.9v1.22h17.74v-1.22c-1.83-0.11-3.27-0.62-4.29-1.51 C59.44,57.65,58.3,55.7,57.04,52.69z M31.17,43.77L39,25.61l7.63,18.17H31.17z"/>
  </symbol>

  <symbol id="service-import" viewBox="0 0 80 80">
    <path fill="currentColor" d="M17.6,20.5h14.21V8.72C31.81,4.18,35.48,2,40,2c4.53,0,8.19,2.18,8.19,6.72V20.5h14.21c0.35,0,0.68,0.21,0.83,0.53 c0.15,0.32,0.1,0.7-0.13,0.98l-22.4,26.6c-0.17,0.2-0.43,0.32-0.69,0.32c-0.27,0-0.52-0.12-0.69-0.32l-22.4-26.6 c-0.23-0.27-0.28-0.66-0.13-0.98C16.93,20.7,17.25,20.5,17.6,20.5z M72.01,17.61c-0.65-2.31-1.61-3.6-3.58-3.6H51.68v3.58h17.06 l6.06,33.48l-21.32,0v8.27H27.01v-8.27l-21.81,0l7.88-33.49h15.24v-3.58H11.58c-1.98,0-3.14,1.4-3.58,3.6L0,52.08V73.5 C0,75.99,2,78,4.47,78h71.06c2.46,0,4.47-2.01,4.47-4.5V52.08L72.01,17.61z"/>
  </symbol>

  <symbol id="big-menu" viewBox="0 0 24 24">
    <path fill="currentColor" d="M12,0.2C5.48,0.2,0.2,5.48,0.2,12S5.48,23.8,12,23.8S23.8,18.52,23.8,12S18.52,0.2,12,0.2z M12,23C5.93,23,1,18.07,1,12 S5.93,1,12,1s11,4.93,11,11S18.07,23,12,23z M18,12c0,0.55-0.45,1-1,1H7c-0.55,0-1-0.45-1-1s0.45-1,1-1h10C17.55,11,18,11.45,18,12 z M18,16c0,0.55-0.45,1-1,1H7c-0.55,0-1-0.45-1-1s0.45-1,1-1h10C17.55,15,18,15.45,18,16z M18,8c0,0.55-0.45,1-1,1H7 C6.45,9,6,8.55,6,8s0.45-1,1-1h10C17.55,7,18,7.45,18,8z"/>
  </symbol>

  <symbol id="icon-user" viewBox="0 0 16 16">
    <path fill="currentColor" d="M12.53,11.96c-2.1-0.8-2.77-1.47-2.77-2.91c0-0.87,0.64-0.58,0.92-2.17c0.12-0.66,0.68-0.01,0.79-1.51 c0-0.6-0.31-0.75-0.31-0.75s0.16-0.89,0.22-1.57C11.46,2.19,10.91,0,8,0C5.09,0,4.54,2.19,4.62,3.04c0.06,0.68,0.22,1.57,0.22,1.57 S4.53,4.76,4.53,5.36c0.11,1.5,0.67,0.85,0.79,1.51c0.28,1.59,0.92,1.3,0.92,2.17c0,1.44-0.67,2.12-2.77,2.91 C1.37,12.76,0,13.57,0,14.13S0,16,0,16h16c0,0,0-1.31,0-1.87S14.63,12.76,12.53,11.96L12.53,11.96z"/>
  </symbol>

  <symbol id="icon-key" viewBox="0 0 16 16">
    <path fill="currentColor" d="M11,0C8.24,0,6,2.24,6,5c0,0.66,0.13,1.29,0.37,1.86L0,13.81V16h2l2-2.19h2 l0.5-2.19H8L9.68,9.8C10.1,9.92,10.54,10,11,10c2.76,0,5-2.24,5-5S13.76,0,11,0z M13.62,6.62L9.38,2.38 C9.92,1.84,10.67,1.5,11.5,1.5c1.66,0,3,1.34,3,3C14.5,5.33,14.17,6.08,13.62,6.62z"/>
  </symbol>

  <symbol id="icon-remove-sign" viewBox="0 0 16 16">
    <path fill="currentColor" d="M8,0C3.58,0,0,3.58,0,8s3.58,8,8,8s8-3.58,8-8S12.42,0,8,0z M12.24,10.83l-1.41,1.41L8,9.41l-2.83,2.83 l-1.41-1.41L6.59,8L3.76,5.17l1.41-1.41L8,6.59l2.83-2.83l1.41,1.41L9.41,8L12.24,10.83z"/>
  </symbol>

  <symbol id="icon-check-sign" viewBox="0 0 16 16">
    <path fill="currentColor" d="M8,0C3.58,0,0,3.58,0,8s3.58,8,8,8s8-3.58,8-8S12.42,0,8,0z M7.07,12.48L3.29,8.71l1.41-1.41l2.23,2.23 l4.3-5.16l1.54,1.28L7.07,12.48z"/>
  </symbol>

  <symbol id="icon-warning-sign" viewBox="0 0 16 16">
    <path fill="currentColor" d="M15.54,10.88L10.34,1.6C9.78,0.58,8.92,0,8,0S6.22,0.58,5.66,1.6l-5.19,9.29c-0.56,1.01-0.61,2.04-0.14,2.85 C0.79,14.54,1.73,15,2.88,15h10.24c1.15,0,2.09-0.46,2.56-1.27C16.15,12.93,16.1,11.89,15.54,10.88z M9,13H7v-2h2V13z M9,10H7 L6.7,4h2.6L9,10z"/>
  </symbol>

  <symbol id="icon-plus-sign" viewBox="0 0 16 16">
    <path fill="currentColor" d="M8,0C3.58,0,0,3.58,0,8s3.58,8,8,8s8-3.58,8-8S12.42,0,8,0z M13,9H9v4H7V9H3V7h4V3h2v4h4V9z"/>
  </symbol>

  <symbol id="icon-edit" viewBox="0 0 16 16">
    <path fill="currentColor" d="M2.2,9.95L1,15l5.05-1.21l7.49-7.48L9.69,2.47L2.2,9.95z M3.26,13.71l-0.98-0.98L3,10.25L5.75,13L3.26,13.71z M10.11,3.89 c0.12,0.12,0.12,0.31,0,0.42l-5.8,5.8C4.25,10.17,4.18,10.2,4.1,10.2s-0.15-0.03-0.21-0.09c-0.12-0.12-0.12-0.31,0-0.42l5.8-5.8 C9.81,3.77,10,3.77,10.11,3.89z M16,3.35c0,0.33-0.12,0.6-0.34,0.83l-1.54,1.53l-3.84-3.84l1.53-1.53C12.04,0.12,12.31,0,12.64,0 c0.33,0,0.61,0.12,0.84,0.35l2.17,2.16C15.88,2.75,16,3.03,16,3.35z"/>
  </symbol>

  <symbol id="icon-book" viewBox="0 0 16 16">
    <path fill="currentColor" d="M8.5,6c0-3,4.5-3,4.5-3h2v10c0,0,0,0-2,0c-4.29,0-4.5,2-4.5,2S8.5,8,8.5,6z M7.5,6C7.5,3,3,3,3,3H1v10c0,0,0,0,2,0 c4.29,0,4.5,2,4.5,2S7.5,8,7.5,6z"/>
  </symbol>

  <symbol id="icon-lock" viewBox="0 0 16 16">
    <path fill="currentColor" d="M13,7h-1V4c0-2.21-1.79-4-4-4S4,1.79,4,4v3H3C2.45,7,2,7.45,2,8v7c0,0.55,0.45,1,1,1h10c0.55,0,1-0.45,1-1V8 C14,7.45,13.55,7,13,7z M6,4c0-1.1,0.9-2,2-2s2,0.9,2,2v3H6V4z M9,13c0,0.55-0.45,1-1,1s-1-0.45-1-1v-2c0-0.55,0.45-1,1-1 s1,0.45,1,1V13z"/>
  </symbol>

  <symbol id="icon-unlock" viewBox="0 0 16 16">
    <path fill="currentColor" d="M12,0C9.79,0,8,1.79,8,4v3H2C1.45,7,1,7.45,1,8v7c0,0.55,0.45,1,1,1h9c0.55,0,1-0.45,1-1V8 c0-0.55-0.45-1-1-1h-1V4c0-1.1,0.9-2,2-2s2,0.9,2,2v1h2V4C16,1.79,14.21,0,12,0z"/>
  </symbol>

  <symbol id="icon-copy" viewBox="0 0 16 16">
    <path fill="currentColor" d="M360-240q-33 0-56.5-23.5T280-320v-480q0-33 23.5-56.5T360-880h360q33 0 56.5 23.5T800-800v480q0 33-23.5 56.5T720-240H360Zm0-80h360v-480H360v480ZM200-80q-33 0-56.5-23.5T120-160v-560h80v560h440v80H200Zm160-240v-480 480Z"/>
  </symbol>

  <symbol id="icon-fit-width" viewBox="0 0 16 16">
    <path fill="none" stroke="currentColor" d="M1.5 1.5h13v13h-13z" />
    <path fill="currentColor" d="M 13,5.8510914 V 10.148909 H 3 V 5.8510914 Z" />
  </symbol>

  <symbol id="icon-window" viewBox="0 0 24 24">
    <path d="M18 20.75H12C11.8011 20.75 11.6103 20.671 11.4697 20.5303C11.329 20.3897 11.25 20.1989 11.25 20C11.25 19.8011 11.329 19.6103 11.4697 19.4697C11.6103 19.329 11.8011 19.25 12 19.25H18C18.3315 19.25 18.6495 19.1183 18.8839 18.8839C19.1183 18.6495 19.25 18.3315 19.25 18V6C19.25 5.66848 19.1183 5.35054 18.8839 5.11612C18.6495 4.8817 18.3315 4.75 18 4.75H6C5.66848 4.75 5.35054 4.8817 5.11612 5.11612C4.8817 5.35054 4.75 5.66848 4.75 6V12C4.75 12.1989 4.67098 12.3897 4.53033 12.5303C4.38968 12.671 4.19891 12.75 4 12.75C3.80109 12.75 3.61032 12.671 3.46967 12.5303C3.32902 12.3897 3.25 12.1989 3.25 12V6C3.25 5.27065 3.53973 4.57118 4.05546 4.05546C4.57118 3.53973 5.27065 3.25 6 3.25H18C18.7293 3.25 19.4288 3.53973 19.9445 4.05546C20.4603 4.57118 20.75 5.27065 20.75 6V18C20.75 18.7293 20.4603 19.4288 19.9445 19.9445C19.4288 20.4603 18.7293 20.75 18 20.75Z" fill="currentColor"/>
    <path d="M16 12.75C15.8019 12.7474 15.6126 12.6676 15.4725 12.5275C15.3324 12.3874 15.2526 12.1981 15.25 12V8.75H12C11.8011 8.75 11.6103 8.67098 11.4697 8.53033C11.329 8.38968 11.25 8.19891 11.25 8C11.25 7.80109 11.329 7.61032 11.4697 7.46967C11.6103 7.32902 11.8011 7.25 12 7.25H16C16.1981 7.25259 16.3874 7.33244 16.5275 7.47253C16.6676 7.61263 16.7474 7.80189 16.75 8V12C16.7474 12.1981 16.6676 12.3874 16.5275 12.5275C16.3874 12.6676 16.1981 12.7474 16 12.75Z" fill="currentColor"/>
    <path d="M11.5 13.25C11.3071 13.2352 11.1276 13.1455 11 13C10.877 12.8625 10.809 12.6845 10.809 12.5C10.809 12.3155 10.877 12.1375 11 12L15.5 7.5C15.6422 7.36752 15.8302 7.29539 16.0245 7.29882C16.2188 7.30225 16.4042 7.38096 16.5416 7.51838C16.679 7.65579 16.7578 7.84117 16.7612 8.03548C16.7646 8.22978 16.6925 8.41782 16.56 8.56L12 13C11.8724 13.1455 11.6929 13.2352 11.5 13.25Z" fill="currentColor"/>
    <path d="M8 20.75H5C4.53668 20.7474 4.09309 20.5622 3.76546 20.2345C3.43784 19.9069 3.25263 19.4633 3.25 19V16C3.25263 15.5367 3.43784 15.0931 3.76546 14.7655C4.09309 14.4378 4.53668 14.2526 5 14.25H8C8.46332 14.2526 8.90691 14.4378 9.23454 14.7655C9.56216 15.0931 9.74738 15.5367 9.75 16V19C9.74738 19.4633 9.56216 19.9069 9.23454 20.2345C8.90691 20.5622 8.46332 20.7474 8 20.75ZM5 15.75C4.9337 15.75 4.87011 15.7763 4.82322 15.8232C4.77634 15.8701 4.75 15.9337 4.75 16V19C4.75 19.0663 4.77634 19.1299 4.82322 19.1768C4.87011 19.2237 4.9337 19.25 5 19.25H8C8.0663 19.25 8.12989 19.2237 8.17678 19.1768C8.22366 19.1299 8.25 19.0663 8.25 19V16C8.25 15.9337 8.22366 15.8701 8.17678 15.8232C8.12989 15.7763 8.0663 15.75 8 15.75H5Z" fill="currentColor"/>
  </symbol>

  <symbol id="close-window" viewBox="0 0 24 24">
    <path d="M18 20.75H12C11.8011 20.75 11.6103 20.671 11.4697 20.5303C11.329 20.3897 11.25 20.1989 11.25 20C11.25 19.8011 11.329 19.6103 11.4697 19.4697C11.6103 19.329 11.8011 19.25 12 19.25H18C18.3315 19.25 18.6495 19.1183 18.8839 18.8839C19.1183 18.6495 19.25 18.3315 19.25 18V6C19.25 5.66848 19.1183 5.35054 18.8839 5.11612C18.6495 4.8817 18.3315 4.75 18 4.75H6C5.66848 4.75 5.35054 4.8817 5.11612 5.11612C4.8817 5.35054 4.75 5.66848 4.75 6V12C4.75 12.1989 4.67098 12.3897 4.53033 12.5303C4.38968 12.671 4.19891 12.75 4 12.75C3.80109 12.75 3.61032 12.671 3.46967 12.5303C3.32902 12.3897 3.25 12.1989 3.25 12V6C3.25 5.27065 3.53973 4.57118 4.05546 4.05546C4.57118 3.53973 5.27065 3.25 6 3.25H18C18.7293 3.25 19.4288 3.53973 19.9445 4.05546C20.4603 4.57118 20.75 5.27065 20.75 6V18C20.75 18.7293 20.4603 19.4288 19.9445 19.9445C19.4288 20.4603 18.7293 20.75 18 20.75Z" fill="currentColor"/>
    <path d="M16 12.75C15.8019 12.7474 15.6126 12.6676 15.4725 12.5275C15.3324 12.3874 15.2526 12.1981 15.25 12V8.75H12C11.8011 8.75 11.6103 8.67098 11.4697 8.53033C11.329 8.38968 11.25 8.19891 11.25 8C11.25 7.80109 11.329 7.61032 11.4697 7.46967C11.6103 7.32902 11.8011 7.25 12 7.25H16C16.1981 7.25259 16.3874 7.33244 16.5275 7.47253C16.6676 7.61263 16.7474 7.80189 16.75 8V12C16.7474 12.1981 16.6676 12.3874 16.5275 12.5275C16.3874 12.6676 16.1981 12.7474 16 12.75Z" fill="currentColor"/>
    <path d="M11.5 13.25C11.3071 13.2352 11.1276 13.1455 11 13C10.877 12.8625 10.809 12.6845 10.809 12.5C10.809 12.3155 10.877 12.1375 11 12L15.5 7.5C15.6422 7.36752 15.8302 7.29539 16.0245 7.29882C16.2188 7.30225 16.4042 7.38096 16.5416 7.51838C16.679 7.65579 16.7578 7.84117 16.7612 8.03548C16.7646 8.22978 16.6925 8.41782 16.56 8.56L12 13C11.8724 13.1455 11.6929 13.2352 11.5 13.25Z" fill="currentColor"/>
    <path d="M8 20.75H5C4.53668 20.7474 4.09309 20.5622 3.76546 20.2345C3.43784 19.9069 3.25263 19.4633 3.25 19V16C3.25263 15.5367 3.43784 15.0931 3.76546 14.7655C4.09309 14.4378 4.53668 14.2526 5 14.25H8C8.46332 14.2526 8.90691 14.4378 9.23454 14.7655C9.56216 15.0931 9.74738 15.5367 9.75 16V19C9.74738 19.4633 9.56216 19.9069 9.23454 20.2345C8.90691 20.5622 8.46332 20.7474 8 20.75ZM5 15.75C4.9337 15.75 4.87011 15.7763 4.82322 15.8232C4.77634 15.8701 4.75 15.9337 4.75 16V19C4.75 19.0663 4.77634 19.1299 4.82322 19.1768C4.87011 19.2237 4.9337 19.25 5 19.25H8C8.0663 19.25 8.12989 19.2237 8.17678 19.1768C8.22366 19.1299 8.25 19.0663 8.25 19V16C8.25 15.9337 8.22366 15.8701 8.17678 15.8232C8.12989 15.7763 8.0663 15.75 8 15.75H5Z" fill="currentColor"/>
  </symbol>

  <symbol id="icon-export" viewBox="0 0 16 16">
    <path fill="currentColor" d="M11,7c-3.57,0-4.64,0.44-6.5,3.5c0,0-0.08-6.5,6.5-6.5V1l5,4.5L11,10V7z M12,11.79V12H2V5h2.34 c0.18-0.24,0.38-0.47,0.6-0.7C5.46,3.78,6.05,3.35,6.69,3H1C0.45,3,0,3.45,0,4v9c0,0.55,0.45,1,1,1h12c0.55,0,1-0.45,1-1V9.99 L12,11.79z"/>
  </symbol>

  <symbol id="icon-arrow-bottom" viewBox="0 0 16 16">
    <polygon fill="currentColor" points="7,2 7,10.59 2.71,6.29 1.29,7.71 8,14.41 14.71,7.71 13.29,6.29 9,10.59 9,2"/>
  </symbol>

  <symbol id="icon-arrow-left" viewBox="0 0 16 16">
    <polygon fill="currentColor" points="14,7 5.41,7 9.71,2.71 8.29,1.29 1.59,8 8.29,14.71 9.71,13.29 5.41,9 14,9"/>
  </symbol>

  <symbol id="icon-arrow-undo" viewBox="0 0 24 24" fill="none">
    <g stroke-width="0"></g><g stroke-linecap="round" stroke-linejoin="round"></g><g > <path d="M4 7H15C16.8692 7 17.8039 7 18.5 7.40193C18.9561 7.66523 19.3348 8.04394 19.5981 8.49999C20 9.19615 20 10.1308 20 12C20 13.8692 20 14.8038 19.5981 15.5C19.3348 15.9561 18.9561 16.3348 18.5 16.5981C17.8039 17 16.8692 17 15 17H8.00001M4 7L7 4M4 7L7 10" stroke="currentColor" stroke-width="1.5" stroke-linecap="round" stroke-linejoin="round"></path> </g>
  </symbol>

  <symbol id="icon-arrow-redo" viewBox="0 0 24 24" fill="none">
    <g stroke-width="0"></g><g stroke-linecap="round" stroke-linejoin="round"></g><g > <path d="M20 7H9.00001C7.13077 7 6.19615 7 5.5 7.40193C5.04395 7.66523 4.66524 8.04394 4.40193 8.49999C4 9.19615 4 10.1308 4 12C4 13.8692 4 14.8038 4.40192 15.5C4.66523 15.9561 5.04394 16.3348 5.5 16.5981C6.19615 17 7.13077 17 9 17H16M20 7L17 4M20 7L17 10" stroke="currentColor" stroke-width="1.5" stroke-linecap="round" stroke-linejoin="round"></path> </g>
  </symbol>

  <symbol id="icon-arrow-right" viewBox="0 0 16 16">
    <polygon fill="currentColor" points="2,7 10.59,7 6.29,2.71 7.71,1.29 14.41,8 7.71,14.71 6.29,13.29 10.59,9 2,9"/>
  </symbol>

  <symbol id="icon-arrow-top" viewBox="0 0 16 16">
    <polygon fill="currentColor" points="7,14 7,5.41 2.71,9.71 1.29,8.29 8,1.59 14.71,8.29 13.29,9.71 9,5.41 9,14"/>
  </symbol>

  <symbol id="icon-layout-ltr" viewBox="0 0 16 16">
    <path fill="currentColor" d="M1,1v14h14V1H1z M14,14H8V2h6V14z"/>
  </symbol>

  <symbol id="icon-layout-rtl" viewBox="0 0 16 16">
    <path fill="currentColor" d="M1,1v14h14V1H1z M8,14H2V2h6V14z"/>
  </symbol>

  <symbol id="icon-layout-ttb" viewBox="0 0 16 16">
    <path fill="currentColor" d="M1,1v14h14V1H1z M14,14H2V8h12V14z"/>
  </symbol>

  <symbol id="icon-layout-btt" viewBox="0 0 16 16">
    <path fill="currentColor" d="M1,1v14h14V1H1z M2,8V2h12v6H2z"/>
  </symbol>

  <symbol id="icon-expand" viewBox="0 0 16 16">
    <path fill="currentColor" d="M1 1h14v14H1V1zm8.5 2a.5.5 0 0 0-.09.992L9.5 4h1.793L9.146 6.146a.5.5 0 0 0 .638.765l.07-.057L12 4.707V6.5a.5.5 0 0 0 .41.492L12.5 7a.5.5 0 0 0 .492-.41L13 6.5V3H9.5zm-3 10a.5.5 0 0 0 .09-.992L6.5 12H4.707l2.147-2.146a.5.5 0 0 0-.638-.765l-.07.057L4 11.293V9.5a.5.5 0 0 0-.41-.492L3.5 9a.5.5 0 0 0-.492.41L3 9.5V13h3.5z"/>
  </symbol>

  <symbol id="icon-collapse" viewBox="0 0 16 16">
    <path fill="currentColor" d="M15 1v14H1V1h14zM7 9H3.5a.5.5 0 0 0-.09.992L3.5 10h1.793l-2.147 2.146a.5.5 0 0 0 .638.765l.07-.057L6 10.707V12.5a.5.5 0 0 0 .41.492L6.5 13a.5.5 0 0 0 .492-.41L7 12.5V9zm2.5-6a.5.5 0 0 0-.492.41L9 3.5V7h3.5a.5.5 0 0 0 .09-.992L12.5 6h-1.793l2.147-2.146a.5.5 0 0 0-.638-.765l-.07.057L10 5.293V3.5a.5.5 0 0 0-.41-.492L9.5 3z"/>
  </symbol>

  <symbol id="icon-zoom-in" viewBox="0 0 16 16">
    <circle fill="none" cx="7.5" cy="7.5" r="6" stroke="currentColor"/>
    <path fill="none" stroke="currentColor" stroke-linecap="round" stroke-width="2" d="M15 15l-2.5-2.5"/>
    <path fill="none" stroke="currentColor" stroke-linecap="round" d="M7.5 4.5v6m-3-3h6"/>
  </symbol>

  <symbol id="icon-zoom-out" viewBox="0 0 16 16">
    <circle fill="none" cx="7.5" cy="7.5" r="6" stroke="currentColor"/>
    <path fill="none" stroke="currentColor" stroke-linecap="round" stroke-width="2" d="M15 15l-2.5-2.5"/>
    <path fill="none" stroke="currentColor" stroke-linecap="round" d="M4.5 7.5h6"/>
  </symbol>

  <symbol id="icon-fit-view" viewBox="0 0 16 16">
    <path fill="none" stroke="currentColor" d="M1.5 1.5h13v13h-13z"/>
    <path fill="currentColor" d="M5 3h6v10H5z"/>
  </symbol>

  <symbol id="icon-rotate-left" viewBox="0 0 16 16">
    <path fill="currentColor" d="M3 6h8v9H3z"/>
    <path fill="none" stroke="currentColor" d="M14.5 9A6.5 6.5 0 0 0 8 2.5"/>
    <path fill="currentColor" d="M9 0v5L5 2.5z"/>
  </symbol>

  <symbol id="icon-rotate-right" viewBox="0 0 16 16">
    <path fill="currentColor" d="M13 6H5v9h8z"/>
    <path fill="none" stroke="currentColor" d="M1.5 9A6.5 6.5 0 0 1 8 2.5"/>
    <path fill="currentColor" d="M7 0v5l4-2.5z"/>
  </symbol>

  <symbol id="icon-filters" viewBox="0 0 16 16">
    <path fill="currentColor" d="M8 3a5 5 0 1 1 0 10A5 5 0 0 1 8 3zm0 1a4 4 0 1 0 0 8V4z"/>
    <path fill="none" stroke="currentColor" stroke-linecap="round" d="M8 .5V2m0 12v1.5M4.25 1.505L5 2.804m6 10.392l.75 1.3M1.505 4.25L2.804 5m10.392 6l1.3.75M.5 8H2m12 0h1.5M1.505 11.75L2.804 11m10.392-6l1.3-.75M4.25 14.495L5 13.196m6-10.392l.75-1.3"/>
  </symbol>

  <symbol id="icon-rotate-cw" viewBox="0 0 16 16">
    <path fill="currentColor" d="M16,9V2l-2.48,1.72C12.24,2.07,10.24,1,8,1C4.14,1,1,4.14,1,8c0,3.86,3.14,7,7,7c2.5,0,4.69-1.32,5.93-3.29 l-1.7-1.06C11.34,12.05,9.78,13,8,13c-2.76,0-5-2.24-5-5c0-2.76,2.24-5,5-5c1.57,0,2.96,0.73,3.87,1.86L9.5,6.5L16,9z"/>
  </symbol>

  <symbol id="icon-rotate-ccw" viewBox="0 0 16 16">
    <path fill="currentColor" d="M8,1C5.76,1,3.76,2.07,2.48,3.72L0,2v7l6.5-2.5L4.13,4.86C5.04,3.73,6.43,3,8,3c2.76,0,5,2.24,5,5 c0,2.76-2.24,5-5,5c-1.78,0-3.34-0.95-4.23-2.36l-1.7,1.06C3.31,13.68,5.5,15,8,15c3.86,0,7-3.14,7-7C15,4.14,11.86,1,8,1z"/>
  </symbol>

  <symbol id="icon-enlarge" viewBox="0 0 16 16">
    <path fill="currentColor" d="M15,1v7c0,0.55-0.45,1-1,1s-1-0.45-1-1V4.41L9.71,7.71L8.29,6.29L11.59,3H8C7.45,3,7,2.55,7,2s0.45-1,1-1H15 z M8,13H4.41l3.29-3.29L6.29,8.29L3,11.59V8c0-0.55-0.45-1-1-1S1,7.45,1,8v7h7c0.55,0,1-0.45,1-1S8.55,13,8,13z"/>
  </symbol>

  <symbol id="icon-reduce" viewBox="0 0 16 16">
    <path fill="currentColor" d="M1,8h7v7c0,0.55-0.45,1-1,1s-1-0.45-1-1v-3.59l-4.29,4.29l-1.41-1.41L4.59,10H1c-0.55,0-1-0.45-1-1 S0.45,8,1,8z M15,6h-3.59l4.29-4.29l-1.41-1.41L10,4.59V1c0-0.55-0.45-1-1-1S8,0.45,8,1v7h7c0.55,0,1-0.45,1-1S15.55,6,15,6z"/>
  </symbol>

  <symbol id="icon-refresh" viewBox="0 0 16 16">
    <path fill="currentColor" d="M12.67,9.75l1.88,0.71C13.55,13.11,10.99,15,8,15c-2.25,0-4.24-1.06-5.52-2.71L0,14V7l6.5,2.5l-2.37,1.64 C5.05,12.27,6.44,13,8,13C10.14,13,11.95,11.64,12.67,9.75z M13.52,3.71C12.24,2.06,10.25,1,8,1C5,1,2.45,2.89,1.45,5.54l1.88,0.71 C4.05,4.36,5.86,3,8,3c1.57,0,2.95,0.73,3.87,1.86L9.5,6.5L16,9V2L13.52,3.71z"/>
  </symbol>

  <symbol id="icon-page" viewBox="0 0 16 16">
    <path fill="currentColor" d="M10.5,1H3v14h11V4.5L10.5,1z M5,4h4v1H5V4z M5,6h5v1H5V6z M10,11H5v-1h5V11z M12,9H5V8h7V9z M10,5V1.5L13.5,5H10z"/>
  </symbol>

  <symbol id="icon-comment" viewBox="0 0 16 16">
    <path fill="currentColor" d="M15,6v2c0,1.78-1.19,3.28-2.8,3.79L13,15l-4.5-3H5c-2.2,0-4-1.8-4-4V6c0-2.2,1.8-4,4-4h6C13.2,2,15,3.8,15,6z"/>
  </symbol>

  <symbol id="icon-list" viewBox="0 0 16 16">
    <path fill="currentColor" d="M14,8c0,0.55-0.45,1-1,1H3C2.45,9,2,8.55,2,8s0.45-1,1-1h10C13.55,7,14,7.45,14,8z M13,12H3c-0.55,0-1,0.45-1,1s0.45,1,1,1 h10c0.55,0,1-0.45,1-1S13.55,12,13,12z M3,4h10c0.55,0,1-0.45,1-1s-0.45-1-1-1H3C2.45,2,2,2.45,2,3S2.45,4,3,4z"/>
  </symbol>

  <symbol id="icon-reorder" viewBox="0 0 16 16">
    <path fill="none" stroke="currentColor" stroke-linecap="round" stroke-width="2" d="M2 8h12M2 3h12M2 13h12"/>
  </symbol>

  <symbol id="icon-ruler" viewBox="0 0 256 256">
    <path fill="currentColor" d="M235.32,73.37,182.63,20.69a16,16,0,0,0-22.63,0L20.68,160a16,16,0,0,0,0,22.63l52.69,52.68a16,16,0,0,0,22.63,0L235.32,96A16,16,0,0,0,235.32,73.37ZM84.68,224,32,171.31l32-32,26.34,26.35a8,8,0,0,0,11.32-11.32L75.31,128,96,107.31l26.34,26.35a8,8,0,0,0,11.32-11.32L107.31,96,128,75.31l26.34,26.35a8,8,0,0,0,11.32-11.32L139.31,64l32-32L224,84.69Z" />
  </symbol>

  <symbol id="icon-clipboard" viewBox="0 0 256 256">
    <path fill="currentColor" d="M200,32H163.74a47.92,47.92,0,0,0-71.48,0H56A16,16,0,0,0,40,48V216a16,16,0,0,0,16,16H200a16,16,0,0,0,16-16V48A16,16,0,0,0,200,32Zm-72,0a32,32,0,0,1,32,32H96A32,32,0,0,1,128,32Zm72,184H56V48H82.75A47.93,47.93,0,0,0,80,64v8a8,8,0,0,0,8,8h80a8,8,0,0,0,8-8V64a47.93,47.93,0,0,0-2.75-16H200Z" />
  </symbol>

  <symbol id="icon-cursor-text" viewBox="0 0 256 256">
    <path fill="currentColor" d="M184,208a8,8,0,0,1-8,8H160a40,40,0,0,1-32-16,40,40,0,0,1-32,16H80a8,8,0,0,1,0-16H96a24,24,0,0,0,24-24V136H104a8,8,0,0,1,0-16h16V80A24,24,0,0,0,96,56H80a8,8,0,0,1,0-16H96a40,40,0,0,1,32,16,40,40,0,0,1,32-16h16a8,8,0,0,1,0,16H160a24,24,0,0,0-24,24v40h16a8,8,0,0,1,0,16H136v40a24,24,0,0,0,24,24h16A8,8,0,0,1,184,208Z" />
  </symbol>

  <symbol id="logo-twitter" viewBox="0 0 16 16">
    <path fill="currentColor" d="M14.355 5.241c.01.142.01.284.01.427 0 4.335-3.299 9.33-9.33 9.33A9.267 9.267 0 0 1 0 13.524c.264.03.518.041.792.041a6.567 6.567 0 0 0 4.07-1.401A3.285 3.285 0 0 1 1.797 9.89c.203.03.406.05.62.05.294 0 .588-.04.862-.111A3.28 3.28 0 0 1 .65 6.612v-.04c.437.243.945.395 1.483.415A3.277 3.277 0 0 1 .67 4.257c0-.61.162-1.168.447-1.655a9.321 9.321 0 0 0 6.761 3.431 3.702 3.702 0 0 1-.081-.751 3.278 3.278 0 0 1 3.28-3.28c.943 0 1.796.397 2.395 1.036a6.456 6.456 0 0 0 2.081-.792 3.27 3.27 0 0 1-1.441 1.807c.66-.07 1.3-.253 1.888-.507a7.049 7.049 0 0 1-1.645 1.695z" />
  </symbol>

  <symbol id="logo-facebook" viewBox="0 0 16 16">
    <path fill="currentColor" d="M13.5 1h-11A1.5 1.5 0 0 0 1 2.5v11A1.5 1.5 0 0 0 2.5 15h4.29v-4.76H4.82V8h1.97V6.293c0-1.943 1.155-3.016 2.926-3.016.848 0 1.735.152 1.735.152v1.906h-.977c-.963 0-1.263.598-1.263 1.21V8h2.15l-.344 2.24H9.21V15h4.29a1.5 1.5 0 0 0 1.5-1.5v-11A1.5 1.5 0 0 0 13.5 1z" />
  </symbol>

  <symbol id="logo-youtube" viewBox="0 0 16 16">
    <path fill="currentColor" d="M15.498 4.221a1.966 1.966 0 0 0-1.384-1.392C12.894 2.5 8.002 2.5 8.002 2.5s-4.892 0-6.112.329A1.966 1.966 0 0 0 .507 4.221C.18 5.45.18 8.011.18 8.011s0 2.562.327 3.79c.18.678.71 1.189 1.383 1.37 1.22.329 6.112.329 6.112.329s4.892 0 6.112-.329a1.936 1.936 0 0 0 1.384-1.37c.326-1.228.326-3.79.326-3.79s0-2.562-.326-3.79zm-9.096 6.116V5.685l4.09 2.326-4.09 2.326z" />
  </symbol>

  <symbol id="logo-instagram" viewBox="0 0 16 16">
    <path fill="currentColor" d="M8.003 4.422a3.569 3.569 0 0 0-3.575 3.575 3.569 3.569 0 0 0 3.575 3.575 3.569 3.569 0 0 0 3.575-3.575 3.569 3.569 0 0 0-3.575-3.575zm0 5.899A2.328 2.328 0 0 1 5.68 7.997a2.326 2.326 0 0 1 2.324-2.324 2.326 2.326 0 0 1 2.324 2.324 2.328 2.328 0 0 1-2.324 2.324zm4.555-6.045a.832.832 0 0 1-.834.834.834.834 0 1 1 .834-.834zm2.367.846c-.053-1.117-.308-2.106-1.126-2.921-.815-.815-1.804-1.07-2.921-1.126-1.151-.066-4.602-.066-5.753 0-1.113.053-2.103.308-2.921 1.123-.818.815-1.07 1.804-1.126 2.921-.066 1.151-.066 4.601 0 5.753.053 1.116.308 2.106 1.126 2.92.818.816 1.804 1.071 2.921 1.127 1.151.065 4.602.065 5.753 0 1.117-.053 2.106-.308 2.921-1.126.815-.815 1.07-1.805 1.126-2.921.066-1.152.066-4.599 0-5.75zm-1.487 6.985a2.353 2.353 0 0 1-1.325 1.325c-.918.364-3.096.28-4.11.28-1.014 0-3.195.08-4.11-.28a2.353 2.353 0 0 1-1.325-1.325c-.364-.918-.28-3.096-.28-4.11 0-1.014-.08-3.195.28-4.11a2.35 2.35 0 0 1 1.325-1.325c.918-.364 3.096-.28 4.11-.28 1.014 0 3.195-.081 4.11.28.61.242 1.08.712 1.325 1.325.364.918.28 3.096.28 4.11 0 1.014.084 3.195-.28 4.11z" />
  </symbol>

  <symbol id="icon-settings" viewBox="80 -880 800 800">
    <path fill="currentColor" d="M555-80H405q-15 0-26-10t-13-25l-12-93q-13-5-24.5-12T307-235l-87 36q-14 5-28 1t-22-17L96-344q-8-13-5-28t15-24l75-57q-1-7-1-13.5v-27q0-6.5 1-13.5l-75-57q-12-9-15-24t5-28l74-129q7-14 21.5-17.5T220-761l87 36q11-8 23-15t24-12l12-93q2-15 13-25t26-10h150q15 0 26 10t13 25l12 93q13 5 24.5 12t22.5 15l87-36q14-5 28-1t22 17l74 129q8 13 5 28t-15 24l-75 57q1 7 1 13.5v27q0 6.5-2 13.5l75 57q12 9 15 24t-5 28l-74 128q-8 13-22.5 17.5T738-199l-85-36q-11 8-23 15t-24 12l-12 93q-2 15-13 25t-26 10Zm-73-260q58 0 99-41t41-99q0-58-41-99t-99-41q-59 0-99.5 41T342-480q0 58 40.5 99t99.5 41Z"/>
  </symbol>

  <symbol id="icon-task-configuration" viewBox="80 -880 800 800">
    <path fill="currentColor" d="M838-231 699-92q-6 6-13.5 9T670-80h-70q-17 0-28.5-11.5T560-120v-70q0-8 3-15.5t9-13.5l139-139 127 127Zm42-42L753-400l29-29q12-12 28-12t28 12l71 71q12 12 12 28t-12 28l-29 29ZM400-600q-17 0-28.5-11.5T360-640q0-17 11.5-28.5T400-680h280q17 0 28.5 11.5T720-640q0 17-11.5 28.5T680-600H400Zm0 120q-17 0-28.5-11.5T360-520q0-17 11.5-28.5T400-560h280q17 0 28.5 11.5T720-520q0 17-11.5 28.5T680-480H400ZM240-80q-50 0-85-35t-35-85v-40q0-33 23.5-56.5T200-320h40v-480q0-33 23.5-56.5T320-880h440q33 0 56.5 23.5T840-800v200l-80 80v-280H320v480h240l-57 57q-11 11-17 25.5t-6 30.5v127H240Z"/>
  </symbol>

  <symbol id="icon-look-feel" viewBox="80 -880 800 800">
    <path fill="currentColor" d="M520-278q44-21 88.5-31.5T700-320q36 0 70.5 6t69.5 18v-396q-33-14-68.5-21t-71.5-7q-47 0-93 12t-87 36v394Zm-40 97q-14 0-26.5-3.5T430-194q-39-23-82-34.5T260-240q-42 0-82.5 11T100-198q-21 11-40.5-1T40-234v-482q0-11 5.5-21T62-752q47-23 96.5-35.5T260-800q58 0 113.5 15T480-740q51-30 106.5-45T700-800q52 0 101.5 12.5T898-752q11 5 16.5 15t5.5 21v482q0 23-19.5 35t-40.5 1q-37-20-77.5-31T700-240q-45 0-88 11.5T530-194q-11 6-23.5 9.5T480-181Zm80-428q0-9 6.5-18.5T581-640q29-10 58-15t61-5q20 0 39.5 2.5T778-651q9 2 15.5 10t6.5 18q0 17-11 25t-28 4q-14-3-29.5-4.5T700-600q-26 0-51 5t-48 13q-18 7-29.5-1T560-609Zm0 220q0-9 6.5-18.5T581-420q29-10 58-15t61-5q20 0 39.5 2.5T778-431q9 2 15.5 10t6.5 18q0 17-11 25t-28 4q-14-3-29.5-4.5T700-380q-26 0-51 4.5T601-363q-18 7-29.5-.5T560-389Zm0-110q0-9 6.5-18.5T581-530q29-10 58-15t61-5q20 0 39.5 2.5T778-541q9 2 15.5 10t6.5 18q0 17-11 25t-28 4q-14-3-29.5-4.5T700-490q-26 0-51 5t-48 13q-18 7-29.5-1T560-499Z"/>
  </symbol>

  <symbol id="icon-help" viewBox="80 -880 800 800">
    <path fill="currentColor" d="M478-240q21 0 35.5-14.5T528-290q0-21-14.5-35.5T478-340q-21 0-35.5 14.5T428-290q0 21 14.5 35.5T478-240Zm2 160q-83 0-156-31.5T197-197q-54-54-85.5-127T80-480q0-83 31.5-156T197-763q54-54 127-85.5T480-880q83 0 156 31.5T763-763q54 54 85.5 127T880-480q0 83-31.5 156T763-197q-54 54-127 85.5T480-80Zm4-572q25 0 43.5 16t18.5 40q0 22-13.5 39T502-525q-23 20-40.5 44T444-427q0 14 10.5 23.5T479-394q15 0 25.5-10t13.5-25q4-21 18-37.5t30-31.5q23-22 39.5-48t16.5-58q0-51-41.5-83.5T484-720q-38 0-72.5 16T359-655q-7 12-4.5 25.5T368-609q14 8 29 5t25-17q11-15 27.5-23t34.5-8Z"/>
  </symbol>

  <symbol id="icon-copy" viewBox="0 -960 960 960">
    <path fill="currentColor" d="M360-240q-33 0-56.5-23.5T280-320v-480q0-33 23.5-56.5T360-880h360q33 0 56.5 23.5T800-800v480q0 33-23.5 56.5T720-240H360ZM200-80q-33 0-56.5-23.5T120-160v-560h80v560h440v80H200Z"/>
  </symbol>

  <symbol id="icon-table" viewBox="0 0 24 24" fill="none">
    <g id="SVGRepo_bgCarrier" stroke-width="0"></g>
    <g id="SVGRepo_tracerCarrier" stroke-linecap="round" stroke-linejoin="round"></g>
    <g id="SVGRepo_iconCarrier">
      <path d="M9 4L9 20M15 4L15 20M3 9H21M3 15H21M6.2 20H17.8C18.9201 20 19.4802 20 19.908 19.782C20.2843 19.5903 20.5903 19.2843 20.782 18.908C21 18.4802 21 17.9201 21 16.8V7.2C21 6.0799 21 5.51984 20.782 5.09202C20.5903 4.71569 20.2843 4.40973 19.908 4.21799C19.4802 4 18.9201 4 17.8 4H6.2C5.07989 4 4.51984 4 4.09202 4.21799C3.71569 4.40973 3.40973 4.71569 3.21799 5.09202C3 5.51984 3 6.07989 3 7.2V16.8C3 17.9201 3 18.4802 3.21799 18.908C3.40973 19.2843 3.71569 19.5903 4.09202 19.782C4.51984 20 5.07989 20 6.2 20Z" stroke="#553322" stroke-width="2" stroke-linecap="round" stroke-linejoin="round"></path>
    </g>
  </symbol>

</svg>
