<svg xmlns="http://www.w3.org/2000/svg" xmlns:xlink="http://www.w3.org/1999/xlink" width="0" height="0">

  <symbol id="logo" viewBox="0 0 134 50">
    <path fill="#4D4040" d="M49.9,22.82C48.7,9.07,36.58-1.11,22.82,0.1C9.07,1.3-1.11,13.42,0.1,27.18 C1.3,40.93,13.42,51.11,27.18,49.9C40.93,48.7,51.11,36.58,49.9,22.82"/>
    <path fill="#E4B665" d="M40.71,38.17c-7.28,8.68-20.21,9.81-28.88,2.53C3.15,33.43,2.02,20.49,9.3,11.82 c5.77-6.87,15.08-9.01,23.01-5.98c-1.31,1.51-3.57,4.1-3.9,4.37c-0.44,0.36-1.13,0.35-1.45,0.85c-0.07,0.69,0.34,1.39,0.7,1.93 c0.14,0.2,0.32,0.46,0.39,0.69c-2.78,3.37-5.72,6.35-8.49,8.81c-0.46,0.41-1.01,0.79-1.22,1.17c-0.17,0.31-0.15,0.96-0.2,1.54 c-0.04,0.42,0.4,4.34-3.61,10.96c-0.11,0.17-0.36,0.57-0.66,0.78c0.04,0.03,0.41,0.34,0.53,0.45l7.76-9.24 c-0.61-0.61-0.67-1.59-0.1-2.27c0.6-0.71,1.65-0.8,2.36-0.2c0.71,0.59,0.8,1.65,0.21,2.36c-0.56,0.67-1.54,0.79-2.25,0.29 l-7.76,9.24c0.12,0.1,0.49,0.42,0.53,0.44c0.16-0.33,0.52-0.64,0.66-0.79c5.82-5.1,9.76-5.34,10.17-5.45 c0.56-0.15,1.2-0.23,1.48-0.46c0.34-0.27,0.61-0.89,0.93-1.41c1.94-3.15,4.38-6.57,7.2-9.89c0.24,0.04,0.53,0.17,0.75,0.27 c0.59,0.26,1.35,0.54,2.02,0.35c0.44-0.4,0.32-1.08,0.59-1.57c0.2-0.37,2.37-3.05,3.63-4.6C46.96,21.76,46.47,31.31,40.71,38.17 M47.06,23.07C46,10.88,35.26,1.86,23.07,2.94C10.89,4,1.86,14.75,2.94,26.93C4,39.11,14.75,48.13,26.93,47.06 C39.11,46,48.13,35.26,47.06,23.07"/>
    <path fill="#4D4040" d="M130.77,36.17l-0.25-3.23h-9.38v4.46h5.26l0.89-2.09l1.77,0.15v6.89l-1.86,0.15l-0.8-2.69h-5.26v5.72h9.43 l1.14-4.03l2.28,0.2l-0.57,6.26h-18.44l-0.14-1.74l2.8-0.6V32.86l-2.8-0.6l0.14-1.74h13.21l5-0.17l0.2,0.12l-0.37,5.83L130.77,36.17 z M111.94,40.52l1.88-0.49l-0.11-1.69h-8.38l-0.14,1.69l3.26,0.6v4.26c-1.37,0.95-3.03,1.46-4.86,1.46c-4.32,0-7.09-2.54-7.09-7.12 c0-4.57,3.06-7.14,7.38-7.14c1.71,0,3.63,0.43,5,1.37l0.34,2.94l2.29,0.12l0.4-5.18c-2.52-1.08-5.49-1.54-8.32-1.54 c-6.63,0-10.64,4.11-10.64,9.43c0,5.32,3.72,9.44,10.27,9.44c2.03,0,4.09-0.49,5.74-1.51l2.32,1.14l0.66-0.31V40.52z M81.36,33.54 h-0.28l-3.58,7.17h7.12L81.36,33.54z M93.37,47.95h-8.95l-0.14-1.74l2.66-0.57l-1.23-2.57h-9.35l-1.28,2.57l2.69,0.57l-0.15,1.74 h-8.35l-0.14-1.74l2.86-0.6l6.12-11.18l1.57-3.46L83.04,30h0.17l7.69,15.67l2.6,0.54L93.37,47.95z M69.77,35.86 c0-3.03-3.12-3.52-5.83-3.52c-1.37,0-2.86,0.14-4.49,0.43v6.63c1.6,0.29,3.06,0.43,4.98,0.43C67.69,39.83,69.77,38.69,69.77,35.86 M73.26,36c0,3.95-3.23,6.29-7.95,6.29c-2.23,0-3.8-0.17-5.86-0.58v3.89l2.78,0.63l-0.14,1.72h-8.95l-0.15-1.72l2.95-0.66V32.92 l-2.8-0.26l-0.15-1.77C56.77,30.31,60.05,30,63.66,30C68.52,30,73.26,30.94,73.26,36 M59.95,21.86l-2.16,0.05v5.06l1.12,0.25 l-0.08,0.7h-3.47l-0.08-0.7l1.14-0.25v-5.06l-2.18-0.05l-0.43,1.74l-0.81-0.1l0.13-2.62l0.14-0.03l1.49,0.09h4.27l1.92-0.09 l0.14,0.03l0.13,2.62l-0.8,0.1L59.95,21.86z M71.1,27.22l-0.06,0.7h-3.53l-0.06-0.7l1.12-0.24v-2.13h-4.17v2.13l1.12,0.24l-0.06,0.7 h-3.52l-0.06-0.7l1.12-0.24v-5.11l-1.12-0.24l0.06-0.7h3.52l0.06,0.7l-1.12,0.24v2h4.17v-2l-1.12-0.24l0.06-0.7h3.53l0.06,0.7 l-1.12,0.24v5.11L71.1,27.22z M78.15,26.95l0.45-1.61l0.92,0.08l-0.23,2.51H71.9l-0.06-0.7l1.12-0.24v-5.11l-1.12-0.24l0.06-0.7 h5.29l2-0.07l0.08,0.05l-0.15,2.33l-0.9-0.05l-0.1-1.29h-3.76v1.79h2.11l0.36-0.84l0.71,0.06v2.76l-0.75,0.06l-0.32-1.08h-2.11v2.29 H78.15z M109.49,16.88V8.91l1.75-0.37l-0.09-1.1h-4.97l-3.75,7.4h-0.16l-3.82-7.4h-4.98l-0.09,1.1l1.66,0.36v8l-1.66,0.35l0.09,1.09 h4.81l0.09-1.09l-1.59-0.35v-3.81l-0.2-4h0.25l4.75,9.24l1-0.16l4.54-9.04h0.23v7.76l-1.87,0.37l0.09,1.09h5.59l0.09-1.09 L109.49,16.88z M90.99,12.9c0-2.81-1.64-4.41-4.34-4.41c-2.7,0-4.34,1.61-4.34,4.41c0,2.8,1.65,4.41,4.34,4.41 C89.35,17.31,90.99,15.7,90.99,12.9 M93.21,12.9c0,3.5-2.59,5.9-6.56,5.9c-3.97,0-6.55-2.39-6.55-5.9c0-3.5,2.59-5.9,6.55-5.9 C90.62,7,93.21,9.39,93.21,12.9 M72.66,13.09c2.04,0,3.34-0.54,3.34-2.31c0-1.89-1.94-2.2-3.64-2.2c-0.86,0-1.79,0.09-2.81,0.27 v3.97C70.56,13,71.47,13.09,72.66,13.09 M80.17,16.93c-0.36,1.2-1.4,1.77-2.59,1.77c-0.87,0-1.75-0.45-2.25-1.28l-1.38-2.24 c-0.27-0.37-0.66-0.64-1.34-0.64c-1.17,0-1.96-0.07-3.05-0.34v2.68l1.73,0.39l-0.09,1.07H65.6l-0.09-1.07l1.84-0.41V8.95L65.6,8.78 l-0.09-1.1c2.36-0.36,4.42-0.56,6.66-0.56c3.22,0,6.08,0.72,6.08,3.7c0,1.89-1.23,2.82-3.15,3.2v0.13c0.5,0.13,0.83,0.32,1.07,0.66 l1.29,1.8c0.21,0.3,0.56,0.41,0.84,0.41c0.43,0,0.79-0.2,0.99-0.59L80.17,16.93 M64.19,11.1l0.21-3.69l-0.14-0.07l-3.02,0.1h-8.17 l-0.09,1.1l1.75,0.37v7.98l-1.75,0.37l0.09,1.09h5.59v-1.09l-1.75-0.37v-3.27h3.29l0.59,1.68l1.09-0.06v-4.55l-1.04-0.05l-0.64,1.48 h-3.29V8.96h5.68l0.18,2.09L64.19,11.1z"/>
  </symbol>

  <symbol id="header-user" viewBox="0 0 28 28">
    <path fill="currentColor" d="M14,0.12C6.34,0.12,0.12,6.34,0.12,14S6.34,27.88,14,27.88S27.88,21.66,27.88,14S21.66,0.12,14,0.12z M14,1.12 c7.1,0,12.88,5.78,12.88,12.88c0,3.11-1.11,5.96-2.95,8.19c-0.01-0.69-1.71-1.7-4.31-2.69c-2.61-0.99-3.44-1.83-3.44-3.62 c0-1.08,0.79-0.73,1.14-2.69c0.15-0.82,0.85-0.02,0.98-1.88c0-0.75-0.38-0.93-0.38-0.93s0.2-1.1,0.27-1.94 c0.09-1.05-0.58-3.78-4.2-3.78c-3.62,0-4.29,2.72-4.2,3.78c0.08,0.85,0.27,1.94,0.27,1.94s-0.38,0.18-0.38,0.93 c0.13,1.86,0.83,1.06,0.98,1.88c0.35,1.96,1.14,1.61,1.14,2.69c0,1.79-0.83,2.63-3.44,3.62c-2.6,0.99-4.29,2-4.31,2.69 C2.23,19.96,1.12,17.11,1.12,14C1.12,6.9,6.9,1.12,14,1.12z"/>
  </symbol>

  <symbol id="start-reading" viewBox="0 0 80 80">
    <path fill="currentColor" d="M79.81,36.83C79.81,36.83,79.81,36.83,79.81,36.83C79.77,36.76,69.93,20,61.73,20c-8.21,0-2.33,3-2.33,3 s13.87,6.12,15.68,12.5c-4.81-1.02-10.81-1-13.14-1c-0.02,0-0.04,0.01-0.06,0.01c-0.19,0-0.38-0.01-0.57-0.01 c-2.36,0-4.39,0.15-6.15,0.42c-0.02,0-0.03,0-0.05,0c-0.05,0.01-0.09,0.02-0.13,0.03c-1.29,0.2-2.43,0.47-3.43,0.79 c-3.49,1-6.81,2.3-11.55,2.3c-4.74,0-8.07-1.31-11.56-2.3c-1-0.32-2.14-0.58-3.43-0.79c-0.05-0.01-0.09-0.02-0.13-0.03 c-0.02,0-0.04,0-0.05,0c-1.76-0.26-3.8-0.42-6.15-0.42c-0.19,0-0.37,0.01-0.56,0.01c-0.02,0-0.04-0.01-0.06-0.01 c-2.33,0-8.34-0.02-13.15,1C6.72,29.12,20.59,23,20.59,23s5.88-3-2.33-3C10.05,20,0.19,36.83,0.19,36.83 c-0.42,0.22-0.01,5.22,0.07,5.42c0.13,0.33,2.06,2.68,3.54,8.37h0c0.99,5.29,6,9.38,13.78,9.38c6.42,0,11.34-2.01,14.37-5.64 c0.01-0.02,0.02-0.02,0.03-0.03c4.78-5.53,2.7-9.07,8.03-9.07c5.32,0,3.24,3.54,8.02,9.07c0.01,0.01,0.02,0.02,0.03,0.03 C51.08,57.99,56.01,60,62.42,60c7.41,0,12.79-4.09,13.78-9.38h0c1.47-5.69,3.41-8.03,3.54-8.37 C79.82,42.06,80.23,37.05,79.81,36.83z M17.94,56.08c-9,0-10-4.67-10-10.19c0-4.56,1.31-7.47,10.88-7.47c8.75,0,12,2.52,12,6.12 C30.82,50.39,27.52,56.08,17.94,56.08z M62.19,56.08c-9.58,0-12.89-5.69-12.89-11.55c0-3.59,3.25-6.12,12-6.12 c9.58,0,10.89,2.92,10.89,7.47C72.18,51.41,71.18,56.08,62.19,56.08z"/>
  </symbol>

  <symbol id="start-transcribing" viewBox="0 0 80 80">
    <path fill="currentColor" d="M18.51,79.03c1.22-4.03,2.16-9.65,4.6-17.79c10.79-1.78,16.98,0,23.83-12.55c-5.25,0.67-15.1-5.6-13.6-4.02 c6.57,2.61,18.21,2.81,28.34-15.45c-12.67,2.81-19.61-1.68-17.73-1.87c3.47-0.18,14.92-0.94,20.83-6.83 c3.1-2.99,4.51-10.39,3.29-13.01c-1.5-3.18-10.61-7.95-15.68-7.49C47.32,0.5,34.65,12.76,34.56,16.97 c0.09,2.53-0.09-5.9,3.94-13.76C34.18,5.18,24.05,13.7,21.52,18.84c-4.6,9.64-0.56,25.66-1.5,24.06 c-2.35-4.12-2.72-7.29-3.94-16.66c-7.88,11.6-4.5,22.65,2.06,32.66c-2.44,6.64-2.81,14.22-3,18.06 C15.04,80.15,18.04,80.81,18.51,79.03z"/>
  </symbol>

  <symbol id="start-project" viewBox="0 0 80 80">
    <path fill="currentColor" d="M4.65,9.07c3.58-0.57,7.48,2.65,8.7,7.18c0.89,2.43,0.96,2.9,1.6,5.03C13.32,22.01,7.98,23.75,4.71,25 c-1.49-1.28-3.76-4.31-4.35-6.51C-0.85,13.88,1.07,9.65,4.65,9.07L4.65,9.07z M33.18,63.47c1.79,2.08,2.44,3.56,3.5,6.75 c1.23,4.25-0.69,8.42-4.28,9.33c-3.58,0.93-7.48-1.82-8.7-6.15c-0.58-2.08-0.71-4.28-0.37-6.16 C27.97,65.57,33.18,63.47,33.18,63.47z M7.67,7.55c6.62-0.12,9.58,13.74,11.49,19.99c2.97,10.1,11.06,26.85,17.07,36.53 c4.18,5.98,5.22,11.7,0.17,15.93c13.34-6.33,26.62-11.18,41.97-15.17c3.61-3.53,0.75-10.12-3.83-16.76 C66.77,37.42,60.06,20.21,56.04,8.3c-2.36-6.99-5.54-8.8-8.84-8.19c0,0-12.42,2.59-16.56,3.35C24.9,4.54,7.67,7.55,7.67,7.55z"/>
  </symbol>

  <symbol id="start-server" viewBox="0 0 80 80">
    <path fill="currentColor" d="M78.66,21.97c-0.68-4.38-5.12-8.38-9.5-8.77c-19.44-1.6-38.89-1.6-58.33,0c-4.38,0.39-8.81,4.39-9.5,8.77 c-1.78,12.02-1.78,24.04,0,36.06c0.68,4.38,5.12,8.38,9.5,8.77c19.44,1.6,38.89,1.6,58.33,0c4.38-0.39,8.81-4.39,9.5-8.77 C80.45,46.01,80.45,33.99,78.66,21.97z M25.06,44.06l-11,11c-0.29,0.29-0.68,0.44-1.06,0.44s-0.77-0.15-1.06-0.44 c-0.59-0.59-0.59-1.54,0-2.12L21.88,43l-9.94-9.94c-0.59-0.59-0.59-1.54,0-2.12c0.59-0.59,1.54-0.59,2.12,0l11,11 C25.65,42.53,25.65,43.47,25.06,44.06z M46,56H28c-0.83,0-1.5-0.67-1.5-1.5S27.17,53,28,53h18c0.83,0,1.5,0.67,1.5,1.5 S46.83,56,46,56z"/>
  </symbol>

  <symbol id="big-menu" viewBox="0 0 24 24">
    <path fill="currentColor" d="M12,0.2C5.48,0.2,0.2,5.48,0.2,12S5.48,23.8,12,23.8S23.8,18.52,23.8,12S18.52,0.2,12,0.2z M12,23C5.93,23,1,18.07,1,12 S5.93,1,12,1s11,4.93,11,11S18.07,23,12,23z M18,12c0,0.55-0.45,1-1,1H7c-0.55,0-1-0.45-1-1s0.45-1,1-1h10C17.55,11,18,11.45,18,12 z M18,16c0,0.55-0.45,1-1,1H7c-0.55,0-1-0.45-1-1s0.45-1,1-1h10C17.55,15,18,15.45,18,16z M18,8c0,0.55-0.45,1-1,1H7 C6.45,9,6,8.55,6,8s0.45-1,1-1h10C17.55,7,18,7.45,18,8z"/>
  </symbol>

  <symbol id="icon-user" viewBox="0 0 16 16">
    <path fill="currentColor" d="M12.53,11.96c-2.1-0.8-2.77-1.47-2.77-2.91c0-0.87,0.64-0.58,0.92-2.17c0.12-0.66,0.68-0.01,0.79-1.51 c0-0.6-0.31-0.75-0.31-0.75s0.16-0.89,0.22-1.57C11.46,2.19,10.91,0,8,0C5.09,0,4.54,2.19,4.62,3.04c0.06,0.68,0.22,1.57,0.22,1.57 S4.53,4.76,4.53,5.36c0.11,1.5,0.67,0.85,0.79,1.51c0.28,1.59,0.92,1.3,0.92,2.17c0,1.44-0.67,2.12-2.77,2.91 C1.37,12.76,0,13.57,0,14.13S0,16,0,16h16c0,0,0-1.31,0-1.87S14.63,12.76,12.53,11.96L12.53,11.96z"/>
  </symbol>

  <symbol id="icon-key" viewBox="0 0 16 16">
    <path fill="currentColor" d="M11,0C8.24,0,6,2.24,6,5c0,0.66,0.13,1.29,0.37,1.86L0,13.81V16h2l2-2.19h2 l0.5-2.19H8L9.68,9.8C10.1,9.92,10.54,10,11,10c2.76,0,5-2.24,5-5S13.76,0,11,0z M13.62,6.62L9.38,2.38 C9.92,1.84,10.67,1.5,11.5,1.5c1.66,0,3,1.34,3,3C14.5,5.33,14.17,6.08,13.62,6.62z"/>
  </symbol>

  <symbol id="icon-remove-sign" viewBox="0 0 16 16">
    <path fill="currentColor" d="M8,0C3.58,0,0,3.58,0,8s3.58,8,8,8s8-3.58,8-8S12.42,0,8,0z M12.24,10.83l-1.41,1.41L8,9.41l-2.83,2.83 l-1.41-1.41L6.59,8L3.76,5.17l1.41-1.41L8,6.59l2.83-2.83l1.41,1.41L9.41,8L12.24,10.83z"/>
  </symbol>

  <symbol id="icon-check-sign" viewBox="0 0 16 16">
    <path fill="currentColor" d="M8,0C3.58,0,0,3.58,0,8s3.58,8,8,8s8-3.58,8-8S12.42,0,8,0z M7.07,12.48L3.29,8.71l1.41-1.41l2.23,2.23 l4.3-5.16l1.54,1.28L7.07,12.48z"/>
  </symbol>

  <symbol id="icon-warning-sign" viewBox="0 0 16 16">
    <path fill="currentColor" d="M15.54,10.88L10.34,1.6C9.78,0.58,8.92,0,8,0S6.22,0.58,5.66,1.6l-5.19,9.29c-0.56,1.01-0.61,2.04-0.14,2.85 C0.79,14.54,1.73,15,2.88,15h10.24c1.15,0,2.09-0.46,2.56-1.27C16.15,12.93,16.1,11.89,15.54,10.88z M9,13H7v-2h2V13z M9,10H7 L6.7,4h2.6L9,10z"/>
  </symbol>

  <symbol id="icon-plus-sign" viewBox="0 0 16 16">
    <path fill="currentColor" d="M8,0C3.58,0,0,3.58,0,8s3.58,8,8,8s8-3.58,8-8S12.42,0,8,0z M13,9H9v4H7V9H3V7h4V3h2v4h4V9z"/>
  </symbol>

  <symbol id="icon-edit" viewBox="0 0 16 16">
    <path fill="currentColor" d="M2.2,9.95L1,15l5.05-1.21l7.49-7.48L9.69,2.47L2.2,9.95z M3.26,13.71l-0.98-0.98L3,10.25L5.75,13L3.26,13.71z M10.11,3.89 c0.12,0.12,0.12,0.31,0,0.42l-5.8,5.8C4.25,10.17,4.18,10.2,4.1,10.2s-0.15-0.03-0.21-0.09c-0.12-0.12-0.12-0.31,0-0.42l5.8-5.8 C9.81,3.77,10,3.77,10.11,3.89z M16,3.35c0,0.33-0.12,0.6-0.34,0.83l-1.54,1.53l-3.84-3.84l1.53-1.53C12.04,0.12,12.31,0,12.64,0 c0.33,0,0.61,0.12,0.84,0.35l2.17,2.16C15.88,2.75,16,3.03,16,3.35z"/>
  </symbol>

  <symbol id="icon-book" viewBox="0 0 16 16">
    <path fill="currentColor" d="M8.5,6c0-3,4.5-3,4.5-3h2v10c0,0,0,0-2,0c-4.29,0-4.5,2-4.5,2S8.5,8,8.5,6z M7.5,6C7.5,3,3,3,3,3H1v10c0,0,0,0,2,0 c4.29,0,4.5,2,4.5,2S7.5,8,7.5,6z"/>
  </symbol>

  <symbol id="icon-lock" viewBox="0 0 16 16">
    <path fill="currentColor" d="M13,7h-1V4c0-2.21-1.79-4-4-4S4,1.79,4,4v3H3C2.45,7,2,7.45,2,8v7c0,0.55,0.45,1,1,1h10c0.55,0,1-0.45,1-1V8 C14,7.45,13.55,7,13,7z M6,4c0-1.1,0.9-2,2-2s2,0.9,2,2v3H6V4z M9,13c0,0.55-0.45,1-1,1s-1-0.45-1-1v-2c0-0.55,0.45-1,1-1 s1,0.45,1,1V13z"/>
  </symbol>

  <symbol id="icon-unlock" viewBox="0 0 16 16">
    <path fill="currentColor" d="M12,0C9.79,0,8,1.79,8,4v3H2C1.45,7,1,7.45,1,8v7c0,0.55,0.45,1,1,1h9c0.55,0,1-0.45,1-1V8 c0-0.55-0.45-1-1-1h-1V4c0-1.1,0.9-2,2-2s2,0.9,2,2v1h2V4C16,1.79,14.21,0,12,0z"/>
  </symbol>

  <symbol id="icon-export" viewBox="0 0 16 16">
    <path fill="currentColor" d="M11,7c-3.57,0-4.64,0.44-6.5,3.5c0,0-0.08-6.5,6.5-6.5V1l5,4.5L11,10V7z M12,11.79V12H2V5h2.34 c0.18-0.24,0.38-0.47,0.6-0.7C5.46,3.78,6.05,3.35,6.69,3H1C0.45,3,0,3.45,0,4v9c0,0.55,0.45,1,1,1h12c0.55,0,1-0.45,1-1V9.99 L12,11.79z"/>
  </symbol>

  <symbol id="icon-arrow-bottom" viewBox="0 0 16 16">
    <polygon fill="currentColor" points="7,2 7,10.59 2.71,6.29 1.29,7.71 8,14.41 14.71,7.71 13.29,6.29 9,10.59 9,2"/>
  </symbol>

  <symbol id="icon-arrow-left" viewBox="0 0 16 16">
    <polygon fill="currentColor" points="14,7 5.41,7 9.71,2.71 8.29,1.29 1.59,8 8.29,14.71 9.71,13.29 5.41,9 14,9"/>
  </symbol>

  <symbol id="icon-arrow-right" viewBox="0 0 16 16">
    <polygon fill="currentColor" points="2,7 10.59,7 6.29,2.71 7.71,1.29 14.41,8 7.71,14.71 6.29,13.29 10.59,9 2,9"/>
  </symbol>

  <symbol id="icon-arrow-top" viewBox="0 0 16 16">
    <polygon fill="currentColor" points="7,14 7,5.41 2.71,9.71 1.29,8.29 8,1.59 14.71,8.29 13.29,9.71 9,5.41 9,14"/>
  </symbol>

  <symbol id="icon-layout-ltr" viewBox="0 0 16 16">
    <path fill="currentColor" d="M1,1v14h14V1H1z M14,14H8V2h6V14z"/>
  </symbol>

  <symbol id="icon-layout-rtl" viewBox="0 0 16 16">
    <path fill="currentColor" d="M1,1v14h14V1H1z M8,14H2V2h6V14z"/>
  </symbol>

  <symbol id="icon-layout-ttb" viewBox="0 0 16 16">
    <path fill="currentColor" d="M1,1v14h14V1H1z M14,14H2V8h12V14z"/>
  </symbol>

  <symbol id="icon-layout-btt" viewBox="0 0 16 16">
    <path fill="currentColor" d="M1,1v14h14V1H1z M2,8V2h12v6H2z"/>
  </symbol>

  <symbol id="icon-rotate-cw" viewBox="0 0 16 16">
    <path fill="currentColor" d="M16,9V2l-2.48,1.72C12.24,2.07,10.24,1,8,1C4.14,1,1,4.14,1,8c0,3.86,3.14,7,7,7c2.5,0,4.69-1.32,5.93-3.29 l-1.7-1.06C11.34,12.05,9.78,13,8,13c-2.76,0-5-2.24-5-5c0-2.76,2.24-5,5-5c1.57,0,2.96,0.73,3.87,1.86L9.5,6.5L16,9z"/>
  </symbol>

  <symbol id="icon-rotate-ccw" viewBox="0 0 16 16">
    <path fill="currentColor" d="M8,1C5.76,1,3.76,2.07,2.48,3.72L0,2v7l6.5-2.5L4.13,4.86C5.04,3.73,6.43,3,8,3c2.76,0,5,2.24,5,5 c0,2.76-2.24,5-5,5c-1.78,0-3.34-0.95-4.23-2.36l-1.7,1.06C3.31,13.68,5.5,15,8,15c3.86,0,7-3.14,7-7C15,4.14,11.86,1,8,1z"/>
  </symbol>

  <symbol id="icon-enlarge" viewBox="0 0 16 16">
    <path fill="currentColor" d="M15,1v7c0,0.55-0.45,1-1,1s-1-0.45-1-1V4.41L9.71,7.71L8.29,6.29L11.59,3H8C7.45,3,7,2.55,7,2s0.45-1,1-1H15 z M8,13H4.41l3.29-3.29L6.29,8.29L3,11.59V8c0-0.55-0.45-1-1-1S1,7.45,1,8v7h7c0.55,0,1-0.45,1-1S8.55,13,8,13z"/>
  </symbol>

  <symbol id="icon-reduce" viewBox="0 0 16 16">
    <path fill="currentColor" d="M1,8h7v7c0,0.55-0.45,1-1,1s-1-0.45-1-1v-3.59l-4.29,4.29l-1.41-1.41L4.59,10H1c-0.55,0-1-0.45-1-1 S0.45,8,1,8z M15,6h-3.59l4.29-4.29l-1.41-1.41L10,4.59V1c0-0.55-0.45-1-1-1S8,0.45,8,1v7h7c0.55,0,1-0.45,1-1S15.55,6,15,6z"/>
  </symbol>

</svg>