<svg xmlns="http://www.w3.org/2000/svg" xmlns:xlink="http://www.w3.org/1999/xlink" width="0" height="0">

  <symbol id="logo" viewBox="0 0 134 50">
    <path fill="#4D4040" d="M49.9,22.82C48.7,9.07,36.58-1.11,22.82,0.1C9.07,1.3-1.11,13.42,0.1,27.18 C1.3,40.93,13.42,51.11,27.18,49.9C40.93,48.7,51.11,36.58,49.9,22.82"/>
    <path fill="#E4B665" d="M40.71,38.17c-7.28,8.68-20.21,9.81-28.88,2.53C3.15,33.43,2.02,20.49,9.3,11.82 c5.77-6.87,15.08-9.01,23.01-5.98c-1.31,1.51-3.57,4.1-3.9,4.37c-0.44,0.36-1.13,0.35-1.45,0.85c-0.07,0.69,0.34,1.39,0.7,1.93 c0.14,0.2,0.32,0.46,0.39,0.69c-2.78,3.37-5.72,6.35-8.49,8.81c-0.46,0.41-1.01,0.79-1.22,1.17c-0.17,0.31-0.15,0.96-0.2,1.54 c-0.04,0.42,0.4,4.34-3.61,10.96c-0.11,0.17-0.36,0.57-0.66,0.78c0.04,0.03,0.41,0.34,0.53,0.45l7.76-9.24 c-0.61-0.61-0.67-1.59-0.1-2.27c0.6-0.71,1.65-0.8,2.36-0.2c0.71,0.59,0.8,1.65,0.21,2.36c-0.56,0.67-1.54,0.79-2.25,0.29 l-7.76,9.24c0.12,0.1,0.49,0.42,0.53,0.44c0.16-0.33,0.52-0.64,0.66-0.79c5.82-5.1,9.76-5.34,10.17-5.45 c0.56-0.15,1.2-0.23,1.48-0.46c0.34-0.27,0.61-0.89,0.93-1.41c1.94-3.15,4.38-6.57,7.2-9.89c0.24,0.04,0.53,0.17,0.75,0.27 c0.59,0.26,1.35,0.54,2.02,0.35c0.44-0.4,0.32-1.08,0.59-1.57c0.2-0.37,2.37-3.05,3.63-4.6C46.96,21.76,46.47,31.31,40.71,38.17 M47.06,23.07C46,10.88,35.26,1.86,23.07,2.94C10.89,4,1.86,14.75,2.94,26.93C4,39.11,14.75,48.13,26.93,47.06 C39.11,46,48.13,35.26,47.06,23.07"/>
    <path fill="#4D4040" d="M130.77,36.17l-0.25-3.23h-9.38v4.46h5.26l0.89-2.09l1.77,0.15v6.89l-1.86,0.15l-0.8-2.69h-5.26v5.72h9.43 l1.14-4.03l2.28,0.2l-0.57,6.26h-18.44l-0.14-1.74l2.8-0.6V32.86l-2.8-0.6l0.14-1.74h13.21l5-0.17l0.2,0.12l-0.37,5.83L130.77,36.17 z M111.94,40.52l1.88-0.49l-0.11-1.69h-8.38l-0.14,1.69l3.26,0.6v4.26c-1.37,0.95-3.03,1.46-4.86,1.46c-4.32,0-7.09-2.54-7.09-7.12 c0-4.57,3.06-7.14,7.38-7.14c1.71,0,3.63,0.43,5,1.37l0.34,2.94l2.29,0.12l0.4-5.18c-2.52-1.08-5.49-1.54-8.32-1.54 c-6.63,0-10.64,4.11-10.64,9.43c0,5.32,3.72,9.44,10.27,9.44c2.03,0,4.09-0.49,5.74-1.51l2.32,1.14l0.66-0.31V40.52z M81.36,33.54 h-0.28l-3.58,7.17h7.12L81.36,33.54z M93.37,47.95h-8.95l-0.14-1.74l2.66-0.57l-1.23-2.57h-9.35l-1.28,2.57l2.69,0.57l-0.15,1.74 h-8.35l-0.14-1.74l2.86-0.6l6.12-11.18l1.57-3.46L83.04,30h0.17l7.69,15.67l2.6,0.54L93.37,47.95z M69.77,35.86 c0-3.03-3.12-3.52-5.83-3.52c-1.37,0-2.86,0.14-4.49,0.43v6.63c1.6,0.29,3.06,0.43,4.98,0.43C67.69,39.83,69.77,38.69,69.77,35.86 M73.26,36c0,3.95-3.23,6.29-7.95,6.29c-2.23,0-3.8-0.17-5.86-0.58v3.89l2.78,0.63l-0.14,1.72h-8.95l-0.15-1.72l2.95-0.66V32.92 l-2.8-0.26l-0.15-1.77C56.77,30.31,60.05,30,63.66,30C68.52,30,73.26,30.94,73.26,36 M59.95,21.86l-2.16,0.05v5.06l1.12,0.25 l-0.08,0.7h-3.47l-0.08-0.7l1.14-0.25v-5.06l-2.18-0.05l-0.43,1.74l-0.81-0.1l0.13-2.62l0.14-0.03l1.49,0.09h4.27l1.92-0.09 l0.14,0.03l0.13,2.62l-0.8,0.1L59.95,21.86z M71.1,27.22l-0.06,0.7h-3.53l-0.06-0.7l1.12-0.24v-2.13h-4.17v2.13l1.12,0.24l-0.06,0.7 h-3.52l-0.06-0.7l1.12-0.24v-5.11l-1.12-0.24l0.06-0.7h3.52l0.06,0.7l-1.12,0.24v2h4.17v-2l-1.12-0.24l0.06-0.7h3.53l0.06,0.7 l-1.12,0.24v5.11L71.1,27.22z M78.15,26.95l0.45-1.61l0.92,0.08l-0.23,2.51H71.9l-0.06-0.7l1.12-0.24v-5.11l-1.12-0.24l0.06-0.7 h5.29l2-0.07l0.08,0.05l-0.15,2.33l-0.9-0.05l-0.1-1.29h-3.76v1.79h2.11l0.36-0.84l0.71,0.06v2.76l-0.75,0.06l-0.32-1.08h-2.11v2.29 H78.15z M109.49,16.88V8.91l1.75-0.37l-0.09-1.1h-4.97l-3.75,7.4h-0.16l-3.82-7.4h-4.98l-0.09,1.1l1.66,0.36v8l-1.66,0.35l0.09,1.09 h4.81l0.09-1.09l-1.59-0.35v-3.81l-0.2-4h0.25l4.75,9.24l1-0.16l4.54-9.04h0.23v7.76l-1.87,0.37l0.09,1.09h5.59l0.09-1.09 L109.49,16.88z M90.99,12.9c0-2.81-1.64-4.41-4.34-4.41c-2.7,0-4.34,1.61-4.34,4.41c0,2.8,1.65,4.41,4.34,4.41 C89.35,17.31,90.99,15.7,90.99,12.9 M93.21,12.9c0,3.5-2.59,5.9-6.56,5.9c-3.97,0-6.55-2.39-6.55-5.9c0-3.5,2.59-5.9,6.55-5.9 C90.62,7,93.21,9.39,93.21,12.9 M72.66,13.09c2.04,0,3.34-0.54,3.34-2.31c0-1.89-1.94-2.2-3.64-2.2c-0.86,0-1.79,0.09-2.81,0.27 v3.97C70.56,13,71.47,13.09,72.66,13.09 M80.17,16.93c-0.36,1.2-1.4,1.77-2.59,1.77c-0.87,0-1.75-0.45-2.25-1.28l-1.38-2.24 c-0.27-0.37-0.66-0.64-1.34-0.64c-1.17,0-1.96-0.07-3.05-0.34v2.68l1.73,0.39l-0.09,1.07H65.6l-0.09-1.07l1.84-0.41V8.95L65.6,8.78 l-0.09-1.1c2.36-0.36,4.42-0.56,6.66-0.56c3.22,0,6.08,0.72,6.08,3.7c0,1.89-1.23,2.82-3.15,3.2v0.13c0.5,0.13,0.83,0.32,1.07,0.66 l1.29,1.8c0.21,0.3,0.56,0.41,0.84,0.41c0.43,0,0.79-0.2,0.99-0.59L80.17,16.93 M64.19,11.1l0.21-3.69l-0.14-0.07l-3.02,0.1h-8.17 l-0.09,1.1l1.75,0.37v7.98l-1.75,0.37l0.09,1.09h5.59v-1.09l-1.75-0.37v-3.27h3.29l0.59,1.68l1.09-0.06v-4.55l-1.04-0.05l-0.64,1.48 h-3.29V8.96h5.68l0.18,2.09L64.19,11.1z"/>
  </symbol>

  <symbol id="profile" viewBox="-0.25 -0.25 48 48">
    <path fill="currentColor" d="M23.75,0C10.63,0,0,10.63,0,23.75S10.63,47.5,23.75,47.5S47.5,36.87,47.5,23.75S36.87,0,23.75,0z M23.75,2 C35.74,2,45.5,11.76,45.5,23.75c0,5.17-1.82,9.92-4.84,13.66c-0.51-1.16-3.26-2.72-7.28-4.26c-4.46-1.69-5.89-3.12-5.89-6.19 c0-1.84,1.36-1.24,1.96-4.6c0.25-1.41,1.45-0.03,1.68-3.22c0-1.27-0.65-1.59-0.65-1.59s0.33-1.88,0.46-3.33 c0.15-1.81-1-6.47-7.19-6.47c-6.19,0-7.35,4.66-7.19,6.47c0.13,1.45,0.46,3.33,0.46,3.33s-0.65,0.32-0.65,1.59 c0.22,3.19,1.43,1.81,1.68,3.22c0.6,3.36,1.96,2.76,1.96,4.6c0,3.07-1.43,4.5-5.89,6.19c-4.03,1.54-6.78,3.09-7.28,4.26 C3.82,33.67,2,28.92,2,23.75C2,11.76,11.76,2,23.75,2z"/>
  </symbol>

  <symbol id="start-reading" viewBox="0 0 80 80">
    <path fill="currentColor" d="M79.81,36.83C79.81,36.83,79.81,36.83,79.81,36.83C79.77,36.76,69.93,20,61.73,20c-8.21,0-2.33,3-2.33,3 s13.87,6.12,15.68,12.5c-4.81-1.02-10.81-1-13.14-1c-0.02,0-0.04,0.01-0.06,0.01c-0.19,0-0.38-0.01-0.57-0.01 c-2.36,0-4.39,0.15-6.15,0.42c-0.02,0-0.03,0-0.05,0c-0.05,0.01-0.09,0.02-0.13,0.03c-1.29,0.2-2.43,0.47-3.43,0.79 c-3.49,1-6.81,2.3-11.55,2.3c-4.74,0-8.07-1.31-11.56-2.3c-1-0.32-2.14-0.58-3.43-0.79c-0.05-0.01-0.09-0.02-0.13-0.03 c-0.02,0-0.04,0-0.05,0c-1.76-0.26-3.8-0.42-6.15-0.42c-0.19,0-0.37,0.01-0.56,0.01c-0.02,0-0.04-0.01-0.06-0.01 c-2.33,0-8.34-0.02-13.15,1C6.72,29.12,20.59,23,20.59,23s5.88-3-2.33-3C10.05,20,0.19,36.83,0.19,36.83 c-0.42,0.22-0.01,5.22,0.07,5.42c0.13,0.33,2.06,2.68,3.54,8.37h0c0.99,5.29,6,9.38,13.78,9.38c6.42,0,11.34-2.01,14.37-5.64 c0.01-0.02,0.02-0.02,0.03-0.03c4.78-5.53,2.7-9.07,8.03-9.07c5.32,0,3.24,3.54,8.02,9.07c0.01,0.01,0.02,0.02,0.03,0.03 C51.08,57.99,56.01,60,62.42,60c7.41,0,12.79-4.09,13.78-9.38h0c1.47-5.69,3.41-8.03,3.54-8.37 C79.82,42.06,80.23,37.05,79.81,36.83z M17.94,56.08c-9,0-10-4.67-10-10.19c0-4.56,1.31-7.47,10.88-7.47c8.75,0,12,2.52,12,6.12 C30.82,50.39,27.52,56.08,17.94,56.08z M62.19,56.08c-9.58,0-12.89-5.69-12.89-11.55c0-3.59,3.25-6.12,12-6.12 c9.58,0,10.89,2.92,10.89,7.47C72.18,51.41,71.18,56.08,62.19,56.08z"/>
  </symbol>

  <symbol id="start-transcribing" viewBox="0 0 80 80">
    <path fill="currentColor" d="M18.51,79.03c1.22-4.03,2.16-9.65,4.6-17.79c10.79-1.78,16.98,0,23.83-12.55c-5.25,0.67-15.1-5.6-13.6-4.02 c6.57,2.61,18.21,2.81,28.34-15.45c-12.67,2.81-19.61-1.68-17.73-1.87c3.47-0.18,14.92-0.94,20.83-6.83 c3.1-2.99,4.51-10.39,3.29-13.01c-1.5-3.18-10.61-7.95-15.68-7.49C47.32,0.5,34.65,12.76,34.56,16.97 c0.09,2.53-0.09-5.9,3.94-13.76C34.18,5.18,24.05,13.7,21.52,18.84c-4.6,9.64-0.56,25.66-1.5,24.06 c-2.35-4.12-2.72-7.29-3.94-16.66c-7.88,11.6-4.5,22.65,2.06,32.66c-2.44,6.64-2.81,14.22-3,18.06 C15.04,80.15,18.04,80.81,18.51,79.03z"/>
  </symbol>

  <symbol id="start-project" viewBox="0 0 80 80">
    <path fill="currentColor" d="M75,18.39c0-0.16,0-0.24,0-0.4c-0.25-1.6-1.85-2.41-3.22-1.84c-1.61,0.72-3.14,1.44-4.74,2.08 c-2.74,1.12-5.4,2.32-8.21,3.45c-1.77,0.72-3.54,1.6-5.31,2.32c-2.66,1.12-5.31,2.25-8.05,3.36c-1.37,0.56-2.73,1.28-4.1,1.76 c-2.01,0.72-4.02,0.8-6.12,0.48c-2.01-0.32-3.94-0.72-5.79-1.93c1.37-0.56,2.73-1.12,4.02-1.76c4.02-1.77,8.13-3.45,12.07-5.21 c3.46-1.53,6.84-2.97,10.38-4.49c0.56-0.24,1.04-0.64,1.77-0.32c1.13,0.56,2.25,1.04,3.54,1.52c0-1.92,0-3.69,0-5.53 c0-1.28-1.45-2.24-2.66-1.85c-1.29,0.48-2.49,1.12-3.7,1.61c-2.65,1.04-5.23,2.24-7.8,3.37c-1.77,0.72-3.54,1.52-5.31,2.32 c-2.57,1.12-5.15,2.17-7.81,3.29c-1.85,0.8-3.7,1.52-5.47,2.32c-1.93,0.88-3.54,2.24-3.54,4.97c0.08,14.99,0,30.06,0,45.05 c0,0.56,0.08,1.05,0.32,1.61c0.73,2,2.33,3.05,4.19,3.77c2.01,0.79,4.02,1.27,6.2,1.52c2.17,0.25,4.26,0.16,6.35-0.48 c3.06-0.96,5.87-2.49,8.93-3.69c2.25-0.96,4.51-2,6.68-2.97c3.05-1.28,6.12-2.56,9.25-3.92c2.17-0.96,4.34-1.92,6.51-2.81 c0.97-0.4,1.61-1.28,1.61-2.32C75,48.84,75,33.62,75,18.39z M58.02,61.83c0,0-10.94-3.37-10.94-12.34c0-8.97,7.8-13.71,10.7-7.54 c0,0,2.5-8.1,7.64-6.9C70.66,36.03,69.85,48.37,58.02,61.83z M33,17.11c1.69-0.72,3.38-1.53,5.07-2.24 c3.06-1.28,6.12-2.57,9.33-3.93c2.26-0.96,4.59-2,6.84-2.96c0.48-0.24,0.48-0.4,0.4-0.8c-0.24-0.72-0.72-1.12-1.37-1.44h-0.96 c-1.69,0.56-3.3,1.36-4.91,2.08c-3.06,1.29-6.11,2.57-9.17,3.93c-2.17,0.96-4.35,1.92-6.6,2.88c-2.74,1.2-5.55,2.41-8.37,3.53 c-4.83,2-8.93,1.2-9.82,0.96c-1.2-0.32-2.41-0.64-3.54-1.28c-0.16-0.08-0.32-0.16-0.32-0.32c0-0.24,0.24-0.16,0.32-0.16 c1.45-0.64,2.82-1.28,4.26-1.92c1.77-0.73,3.46-1.53,5.23-2.25c2.98-1.2,5.87-2.56,8.94-3.77c2.65-1.12,5.23-2.32,7.88-3.45 c0.56-0.24,1.13-0.32,1.77,0.08c0.81,0.48,1.69,0.8,2.58,1.12c0.4,0.16,0.8,0.16,0.72-0.56C41.13,5,41.45,3.4,41.13,1.8 c-0.24-1.36-1.61-2.09-2.66-1.69c-1.77,0.56-3.46,1.36-5.23,2.09C31.07,3.08,28.97,4.12,26.8,5c-2.65,1.04-5.31,2.24-7.89,3.36 c-1.77,0.8-3.46,1.52-5.23,2.25c-2.09,0.88-4.27,1.68-6.19,2.72C6.05,14.14,5,15.18,5,17.03C5,32.42,5,47.81,5,63.2 c0,1.52,0.72,2.73,1.85,3.61c2.82,2.16,6.19,2.81,9.74,3.13c1.13,0.08,2.26-0.16,3.38-0.16c1.05-0.08,1.13-0.16,1.13-1.2 c0-13.71,0-27.42,0-41.13c0-3.21,1.61-5.53,4.34-6.98C27.85,19.19,30.43,18.23,33,17.11z"/>
  </symbol>

  <symbol id="start-server" viewBox="0 0 80 80">
    <path fill="currentColor" d="M40,64.99c-1.49,0-2.99-0.78-4.54-2.33c-0.61-0.6-0.61-1.6,0-2.21c0.61-0.61,1.59-0.61,2.21,0 c0.95,0.95,1.72,1.42,2.33,1.42s1.38-0.47,2.33-1.42c0.61-0.61,1.59-0.61,2.21,0c0.61,0.61,0.61,1.61,0,2.21 C42.99,64.22,41.5,64.99,40,64.99z M0,41.05c0,3.9,0.33,7.44,1,10.6c0.66,3.18,1.6,5.93,2.81,8.25c1.21,2.33,2.74,4.37,4.58,6.12 c1.85,1.75,3.86,3.2,6.03,4.33c2.16,1.14,4.64,2.05,7.44,2.76c2.78,0.7,5.63,1.19,8.52,1.47c2.89,0.28,6.06,0.42,9.54,0.42 c3.47,0,6.66-0.14,9.56-0.42c2.9-0.28,5.75-0.77,8.55-1.47c2.78-0.7,5.27-1.61,7.45-2.76c2.18-1.13,4.2-2.58,6.07-4.33 c1.86-1.75,3.39-3.79,4.61-6.12c1.2-2.32,2.15-5.07,2.83-8.25c0.68-3.17,1.02-6.7,1.02-10.6c0-6.98-2.17-12.99-6.5-18.04 c0.25-0.67,0.47-1.45,0.64-2.31c0.18-0.87,0.36-2.09,0.52-3.68c0.17-1.58,0.1-3.41-0.19-5.49c-0.29-2.08-0.83-4.19-1.64-6.35 l-0.62-0.13c-0.41-0.08-1.1-0.06-2.04,0.08c-0.94,0.14-2.05,0.39-3.31,0.75c-1.26,0.36-2.9,1.09-4.9,2.17 c-2,1.08-4.12,2.45-6.33,4.1C51.85,11,46.64,9.8,40,9.8c-6.64,0-11.86,1.2-15.67,2.35c-2.22-1.65-4.33-3.02-6.35-4.08 c-2.02-1.06-3.62-1.8-4.83-2.19c-1.2-0.39-2.33-0.64-3.35-0.76C8.76,5.02,8.11,4.98,7.81,5.02c-0.29,0.04-0.5,0.09-0.64,0.15 C6.36,7.33,5.8,9.45,5.5,11.53c-0.31,2.07-0.37,3.9-0.2,5.47c0.17,1.57,0.34,2.8,0.54,3.7c0.19,0.9,0.41,1.67,0.66,2.31 C2.17,28.02,0,34.04,0,41.05z M10.67,49.96c0-4.54,1.66-8.65,5-12.33c0.99-1.13,2.15-1.98,3.47-2.56c1.32-0.57,2.82-0.91,4.5-0.98 c1.68-0.08,3.28-0.06,4.81,0.05c1.53,0.1,3.42,0.26,5.67,0.44c2.25,0.19,4.19,0.29,5.83,0.29c1.64,0,3.58-0.1,5.84-0.29 c2.25-0.19,4.14-0.34,5.67-0.44c1.52-0.11,3.13-0.13,4.81-0.05c1.69,0.08,3.19,0.41,4.52,0.98c1.33,0.59,2.5,1.43,3.5,2.56 c3.34,3.69,5,7.8,5,12.33c0,2.65-0.28,5.03-0.84,7.1c-0.55,2.08-1.25,3.83-2.1,5.22c-0.85,1.41-2.03,2.59-3.56,3.57 c-1.53,0.97-3.01,1.72-4.44,2.24c-1.43,0.53-3.28,0.95-5.54,1.24c-2.26,0.3-4.29,0.48-6.08,0.54c-1.79,0.07-4.05,0.09-6.77,0.09 c-2.71,0-4.97-0.02-6.75-0.09c-1.78-0.07-3.8-0.24-6.07-0.54c-2.26-0.3-4.1-0.71-5.53-1.24c-1.44-0.52-2.92-1.28-4.44-2.24 c-1.53-0.98-2.72-2.16-3.57-3.57c-0.85-1.4-1.55-3.15-2.11-5.22C10.94,54.98,10.67,52.61,10.67,49.96z M20,47.5 c0,4.15,2.24,7.51,5,7.51c2.76,0,5-3.36,5-7.51c0-4.13-2.24-7.5-5-7.5C22.24,40,20,43.36,20,47.5z M50,47.5 c0,4.15,2.24,7.51,5,7.51s5-3.36,5-7.51c0-4.13-2.24-7.5-5-7.5S50,43.36,50,47.5z"/>
  </symbol>

</svg>