<svg width="42" height="37" viewBox="0 0 42 37" fill="none" xmlns="http://www.w3.org/2000/svg">
<path d="M31.3846 37L26.8846 33.8028C27.6538 32.8132 28.5769 31.2907 29.6538 29.2353C30.7308 27.2561 31.6538 25.0485 32.4231 22.6125C33.1923 20.2527 33.5385 17.969 33.4615 15.7614C32.9231 15.9136 32.5 15.9897 32.1923 15.9897C31.8077 16.0659 31.4231 16.1039 31.0385 16.1039C28.9615 16.1039 27.1154 15.4949 25.5 14.277C23.8846 13.1351 23.0769 11.232 23.0769 8.56765C23.0769 6.28393 23.8462 4.26664 25.3846 2.51579C26.8462 0.841053 28.8462 0.003685 31.3846 0.003685C34.9231 -0.0724411 37.5769 1.03136 39.3462 3.31508C41.1154 5.67493 42 8.56765 42 11.9932C42 14.4292 41.6154 17.0174 40.8462 19.7579C40.0769 22.4984 38.9231 25.315 37.3846 28.2077C35.7692 31.1765 33.7692 34.1073 31.3846 37ZM8.30769 37L3.80769 33.8028C4.57692 32.8132 5.5 31.2907 6.57692 29.2353C7.65385 27.2561 8.57692 25.0485 9.34615 22.6125C10.1154 20.2527 10.4615 17.969 10.3846 15.7614C9.84615 15.9136 9.42308 15.9897 9.11538 15.9897C8.73077 16.0659 8.34615 16.1039 7.96154 16.1039C5.88461 16.1039 4.03846 15.4949 2.42307 14.277C0.80769 13.1351 0 11.232 0 8.56765C0 6.28393 0.76923 4.26664 2.30769 2.51579C3.76923 0.841053 5.76923 0.003685 8.30769 0.003685C11.8462 -0.0724411 14.5 1.03136 16.2692 3.31508C18.0385 5.67493 18.9231 8.56765 18.9231 11.9932C18.9231 14.4292 18.5385 17.0174 17.7692 19.7579C17 22.4984 15.8462 25.315 14.3077 28.2077C12.6923 31.1765 10.6923 34.1073 8.30769 37Z" fill="#EEDDBB"/>
</svg>
