<svg width="42" height="37" viewBox="0 0 42 37" fill="none" xmlns="http://www.w3.org/2000/svg">
<path d="M10.6154 0L15.1154 3.19721C14.3462 4.18683 13.4231 5.70931 12.3462 7.76466C11.2692 9.74389 10.3462 11.9515 9.57692 14.3875C8.80769 16.7473 8.46154 19.031 8.53846 21.2386C9.07692 21.0864 9.5 21.0103 9.80769 21.0103C10.1923 20.9341 10.5769 20.8961 10.9615 20.8961C13.0385 20.8961 14.8846 21.5051 16.5 22.723C18.1154 23.8649 18.9231 25.768 18.9231 28.4323C18.9231 30.7161 18.1538 32.7334 16.6154 34.4842C15.1538 36.1589 13.1538 36.9963 10.6154 36.9963C7.07692 37.0724 4.42308 35.9686 2.65385 33.6849C0.884616 31.3251 0 28.4324 0 25.0068C0 22.5708 0.384616 19.9826 1.15385 17.2421C1.92308 14.5016 3.07692 11.685 4.61539 8.79233C6.23077 5.82349 8.23077 2.89271 10.6154 0ZM33.6923 0L38.1923 3.19721C37.4231 4.18683 36.5 5.70931 35.4231 7.76466C34.3462 9.74389 33.4231 11.9515 32.6539 14.3875C31.8846 16.7473 31.5385 19.031 31.6154 21.2386C32.1538 21.0864 32.5769 21.0103 32.8846 21.0103C33.2692 20.9341 33.6538 20.8961 34.0385 20.8961C36.1154 20.8961 37.9615 21.5051 39.5769 22.723C41.1923 23.8649 42 25.768 42 28.4323C42 30.7161 41.2308 32.7334 39.6923 34.4842C38.2308 36.1589 36.2308 36.9963 33.6923 36.9963C30.1538 37.0724 27.5 35.9686 25.7308 33.6849C23.9615 31.3251 23.0769 28.4324 23.0769 25.0068C23.0769 22.5708 23.4615 19.9826 24.2308 17.2421C25 14.5016 26.1538 11.685 27.6923 8.79233C29.3077 5.82349 31.3077 2.89271 33.6923 0Z" fill="#EEDDBB"/>
</svg>
